<?xml version="1.0" encoding="UTF-8" standalone="no"?>
<svg width="500px" height="488px" viewBox="0 0 500 488" version="1.1" xmlns="http://www.w3.org/2000/svg" xmlns:xlink="http://www.w3.org/1999/xlink" xmlns:sketch="http://www.bohemiancoding.com/sketch/ns">
    <!-- Generator: Sketch 3.5.1 (25234) - http://www.bohemiancoding.com/sketch -->
    <title>White Logo for Title</title>
    <desc>Created with Sketch.</desc>
    <defs></defs>
    <g id="Page-1" stroke="none" stroke-width="1" fill="none" fill-rule="evenodd" sketch:type="MSPage">
        <g id="Site-Title-Logo" sketch:type="MSArtboardGroup" transform="translate(-250.000000, -256.000000)" fill="#FFFFFF">
            <g id="White-Logo-for-Title" sketch:type="MSLayerGroup" transform="translate(250.000000, 256.000000)">
                <path d="M329.315158,487.128949 C428.50888,453.97175 500.002123,360.327337 500.002123,249.985801 C500.002123,111.922456 388.072835,0 250.001062,0 C111.929288,0 0,111.922456 0,249.985801 C0,333.015955 40.4816896,406.59168 102.785878,452.054924 M329.315158,487.128954 L329.315158,487.128949 M102.785878,452.054924 L126.41064,418.337889 L134.803351,404.605214 L143.704712,390.363892 C143.704712,390.363892 149.150113,380.846463 151.78045,376.769483 C154.73217,372.194364 159.711518,362.426221 159.711518,362.426221 C159.711518,362.426221 162.577329,355.896997 163.548188,352.323434 C164.565041,348.580575 165.557445,339.709959 165.557445,339.709959 L166.71135,323.351374 L166.99923,306.528856 L167.734736,289.430243 C167.734736,289.430243 167.678803,285.873877 167.905708,284.071443 C168.098416,282.540659 168.17702,279.47338 168.17702,279.47338 C168.17702,279.47338 168.055202,276.295808 167.924123,274.64813 C167.806379,273.168064 167.671227,269.82288 167.671227,269.82288 L165.523141,256.947897 L161.99481,243.39584 L156.674332,219.676218 L152.049759,196.373988 L149.161593,182.868669 L145.182014,170.107552 L139.952191,157.7593 C139.952191,157.7593 138.994303,155.807846 138.515358,154.832119 C138.099471,153.984854 137.267697,152.290324 137.267697,152.290324 C136.792161,150.624176 136.709171,150.17632 136.737489,149.902052 C137.326022,148.147648 138.041133,147.341062 138.363897,146.99013 C139.435212,146.45045 139.87867,146.415346 140.300736,146.414172 C140.823525,146.412719 142.561618,147.448571 143.202448,147.940316 C143.862373,148.446714 145.73931,150.296148 145.73931,150.296148 L149.548351,154.253939 L154.13202,159.705583 L159.469509,165.491236 L165.148513,171.712192 L172.361372,179.261099 L176.342731,184.419501 L179.529411,188.755023 C180.678098,189.829845 181.199636,190.317847 181.199636,190.317847 C181.199636,190.317847 182.108166,191.036481 182.617402,191.25956 C183.104304,191.472856 184.188052,191.62697 184.188052,191.62697 C185.643112,191.509974 186.270507,191.344021 186.729896,190.728965 C187.143959,190.174593 187.404763,189.162464 187.404763,189.162464 L187.0681,179.848433 C187.0681,179.848433 186.825468,175.219033 186.705425,172.928614 C186.616618,171.234182 186.167824,166.664867 186.030961,166.050359 C185.741926,164.752604 185.163855,162.157093 185.163855,162.157093 L182.535617,153.938481 C182.535617,153.938481 181.902555,151.30302 181.586025,149.985289 C181.290563,148.75527 180.69964,146.295232 180.69964,146.295232 C180.69964,146.295232 180.3706,144.7617 180.327451,143.938422 C180.28765,143.179012 180.450789,141.547166 180.450789,141.547166 C180.715663,140.875744 180.808217,140.296424 181.055939,139.871284 C181.679474,138.801176 182.350774,138.483593 182.350774,138.483593 C182.875465,138.176761 183.445725,138.059494 183.968297,138.037751 C184.966643,137.996212 186.43124,139.10655 186.43124,139.10655 C186.43124,139.10655 187.613849,140.083674 188.205154,140.572236 C188.650725,140.940387 191.165441,143.626333 191.977228,144.601154 C193.070941,145.914524 195.258368,148.541264 195.258368,148.541264 L201.753522,157.605347 C201.753522,157.605347 203.222279,160.094144 203.956657,161.338542 C204.494118,162.249264 206.532271,166.463444 207.434706,168.756153 C208.185372,170.663284 208.893971,172.501205 208.971105,172.835169 C209.220213,173.913724 210.343415,177.2868 210.655908,177.894784 C211.037527,178.637257 211.800764,180.122203 211.800764,180.122203 C213.389646,181.067542 214.101938,180.75618 214.148438,180.733489 C215.569789,179.889343 216.442403,179.313349 217.291771,178.745914 C218.804494,177.735311 220.764027,176.724577 220.764027,176.724577 C220.764027,176.724577 223.574681,175.384534 225.240281,174.700873 C226.885209,174.025697 230.175066,172.675345 230.175066,172.675345 L241.354611,169.418701 L251.635718,167.439047 L259.399175,165.971224 C259.399175,165.971224 261.996728,165.593045 262.72861,165.554691 C263.84101,165.516967 264.54384,165.517911 265.271856,165.809 C266.105597,166.142363 267.306452,167.080547 267.306452,167.080547 L269.201048,169.252363 C270.51865,170.587325 271.446324,171.083286 271.446324,171.083286 C271.446324,171.083286 273.0931,171.675912 273.915743,171.852131 C274.777654,172.036761 276.499984,172.165834 276.499984,172.165834 C276.499984,172.165834 278.626091,172.226587 279.768367,172.166727 C280.75752,172.114891 282.894271,171.830744 282.894271,171.830744 C282.894271,171.830744 285.560957,171.547068 286.8943,171.40523 C288.334738,171.251999 291.212967,170.640873 291.212967,170.640873 C291.212967,170.640873 293.726742,170.216572 294.982307,169.852089 C296.244858,169.485578 298.769961,168.752555 298.769961,168.752555 L312.575968,162.824149 L320.231648,159.53706 L327.510098,156.685139 L332.055542,155.997218 L338.455936,155.022141 L344.316398,153.816771 L351.51204,151.530155 C351.51204,151.530155 352.910314,150.992857 353.609451,150.724207 C354.009068,150.570651 354.59753,150.344529 355.107114,150.148717 C355.675874,149.930167 356.442266,149.68246 356.817115,149.622213 C358.606016,149.557177 359.445917,149.659013 359.801466,149.756913 C361.455658,150.445947 361.532135,150.48553 361.660881,150.550457 C362.963064,151.629869 363.310758,152.109905 363.441145,152.33062 C363.801834,152.941188 364.302266,154.312667 364.302266,154.312667 L365.384541,158.56793 L365.611959,162.907046 L365.191068,168.583731 L364.634857,171.576884 C364.634857,171.576884 364.227025,173.116082 364.02311,173.885681 C363.864884,174.482841 363.673307,174.973854 363.441136,175.727054 C363.206748,176.487448 363.044739,177.501337 363.044739,177.501337 C363.205125,179.689558 363.227726,179.962554 363.283629,180.942343 C363.378914,182.612364 363.461718,184.335565 363.422315,184.705521 C363.343816,185.442564 362.960866,187.946276 362.686524,189.045566 C362.485988,189.849117 358.76105,199.637462 358.76105,199.637462 C358.76105,199.637462 354.787287,207.539696 353.682443,209.407716 C352.70004,211.068719 347.927356,217.688046 347.927356,217.688046 L340.951233,224.96592 L334.313232,230.519282 L324.792884,238.390629 L317.646148,245.054119 L311.10885,251.140092 L308.903077,253.506648 L307.007135,255.899931 L305.245979,258.284146 L303.613693,261.170924 L302.021317,264.310269 L300.139454,269.502048 C300.139454,269.502048 299.830716,271.849696 299.676348,273.02352 C299.527216,274.157523 299.562782,278.364578 299.729697,279.334102 C299.942682,280.571228 300.368653,283.04548 300.368653,283.04548 C300.368653,283.04548 301.209756,285.472899 301.630307,286.686609 C302.098656,288.038261 303.035353,290.741566 303.035353,290.741566 L305.560281,298.311831 L308.765999,307.758002 L311.223738,315.778263 L312.272472,320.944813 L316.626628,347.306272 L318.391644,360.314955 L319.568336,370.651769 L320.579111,382.517725 L329.315158,487.128951 L329.315158,487.128949" id="Total-Smokey" sketch:type="MSShapeGroup"></path>
            </g>
        </g>
    </g>
</svg>