<?xml version="1.0" encoding="UTF-8" standalone="no"?>
<svg width="200px" height="195px" viewBox="0 0 200 195" version="1.1" xmlns="http://www.w3.org/2000/svg" xmlns:xlink="http://www.w3.org/1999/xlink" xmlns:sketch="http://www.bohemiancoding.com/sketch/ns">
    <!-- Generator: Sketch 3.4.2 (15855) - http://www.bohemiancoding.com/sketch -->
    <title>logo</title>
    <desc>Created with Sketch.</desc>
    <defs></defs>
    <g id="Page-1" stroke="none" stroke-width="1" fill="none" fill-rule="evenodd" sketch:type="MSPage">
        <path d="M131.728709,194.867388 C171.406994,181.603432 200.004866,144.142628 200.004866,100.002433 C200.004866,44.7726143 155.232252,0 100.002433,0 C44.7726143,0 0,44.7726143 0,100.002433 C0,133.217189 16.1930011,162.649866 41.1151768,180.83664 M41.1151768,180.83664 L50.5652715,167.348731 L53.9224235,161.855216 L57.4830391,156.158225 C57.4830391,156.158225 59.6612435,152.350944 60.7133992,150.72002 C61.8941111,148.889824 63.8858902,144.98225 63.8858902,144.98225 C63.8858902,144.98225 65.0322377,142.370348 65.4205892,140.940807 C65.8273385,139.443542 66.224308,135.895008 66.224308,135.895008 L66.6858794,129.351043 L66.8010338,122.62149 L67.0952418,115.78149 C67.0952418,115.78149 67.0728682,114.358828 67.1636321,113.637796 C67.2407168,113.025432 67.2721589,111.798422 67.2721589,111.798422 C67.2721589,111.798422 67.2234307,110.52729 67.1709984,109.868165 C67.1238999,109.27609 67.069838,107.937908 67.069838,107.937908 L66.2105863,102.787497 L64.7992253,97.3662345 L62.6709916,87.877616 L60.8211251,78.5559681 L59.6658356,73.1534019 L58.0739718,68.0485411 L55.9820007,63.1088397 C55.9820007,63.1088397 55.5988377,62.3281946 55.4072561,61.937872 C55.2408979,61.5989386 54.9081814,60.9210718 54.9081814,60.9210718 C54.7179634,60.2545584 54.6847666,60.0754015 54.6960942,59.9656853 C54.931512,59.263867 55.2175621,58.9412061 55.3466702,58.8008223 C55.7752049,58.5849326 55.9525919,58.5708897 56.1214215,58.5704203 C56.3305415,58.5698389 57.0257925,58.9842135 57.2821295,59.1809273 C57.546105,59.3835028 58.2968949,60.1233367 58.2968949,60.1233367 L59.8205418,61.7065814 L61.6540464,63.8874158 L63.7890848,66.2018649 L66.0607319,68.6904492 L68.9459334,71.7102568 L70.538509,73.7737853 L71.8132068,75.5081346 C72.2726906,75.9380982 72.4813103,76.1333149 72.4813103,76.1333149 C72.4813103,76.1333149 72.8447293,76.420792 73.0484277,76.5100307 C73.2431927,76.5953559 73.6767004,76.6570066 73.6767004,76.6570066 C74.2587362,76.6102046 74.5096994,76.543818 74.6934586,76.2977754 C74.8590872,76.0760085 74.9634109,75.6711244 74.9634109,75.6711244 L74.8287427,71.9452094 C74.8287427,71.9452094 74.7316882,70.0932993 74.68367,69.1770573 C74.6481465,68.4992298 74.4686253,66.6713552 74.4138791,66.4255323 C74.2982625,65.906388 74.0670295,64.8680995 74.0670295,64.8680995 L73.0157132,61.5803882 C73.0157132,61.5803882 72.7624835,60.526118 72.6358687,59.9989829 C72.5176816,59.5069353 72.2813076,58.5228402 72.2813076,58.5228402 C72.2813076,58.5228402 72.1496891,57.909378 72.1324292,57.5800398 C72.1165084,57.2762512 72.1817653,56.6234598 72.1817653,56.6234598 C72.2877172,56.3548693 72.3247395,56.1231224 72.4238302,55.9530528 C72.673249,55.5249747 72.9417746,55.3979313 72.9417746,55.3979313 C73.1516553,55.2751883 73.3797637,55.228278 73.5887967,55.21958 C73.9881432,55.2029629 74.5739937,55.6471343 74.5739937,55.6471343 C74.5739937,55.6471343 75.0470468,56.0380155 75.2835734,56.2334561 C75.4618057,56.3807285 76.4677123,57.455194 76.7924334,57.8451543 C77.2299275,58.3705449 78.1049159,59.4213262 78.1049159,59.4213262 L80.7030296,63.0472532 C80.7030296,63.0472532 81.2905442,64.0428528 81.5843014,64.5406526 C81.7992899,64.904971 82.6145676,66.5907795 82.9755487,67.5079378 C83.2758215,68.2708521 83.5592666,69.00608 83.5901208,69.1396766 C83.6897659,69.5711333 84.1390558,70.9204734 84.2640557,71.1636868 C84.4167062,71.4607 84.722007,72.0547265 84.722007,72.0547265 C85.3575726,72.4328929 85.6424953,72.308338 85.6610957,72.2992608 C86.2296476,71.9615751 86.5787001,71.7311588 86.9184539,71.5041662 C87.5235553,71.0998923 88.3073845,70.6955658 88.3073845,70.6955658 C88.3073845,70.6955658 89.4316684,70.1595052 90.0979218,69.8860187 C90.7559064,69.6159264 92.0718755,69.0757418 92.0718755,69.0757418 L96.5437834,67.7729782 L100.656309,66.9810523 L103.761754,66.3938755 C103.761754,66.3938755 104.800796,66.2425919 105.093555,66.2272491 C105.538523,66.2121579 105.819661,66.2125357 106.110873,66.3289809 C106.444376,66.4623367 106.924728,66.837641 106.924728,66.837641 L107.682582,67.7064376 C108.209633,68.240466 108.58071,68.4388663 108.58071,68.4388663 C108.58071,68.4388663 109.239434,68.675936 109.568498,68.7464292 C109.913269,68.8202874 110.602215,68.8719205 110.602215,68.8719205 C110.602215,68.8719205 111.452675,68.8962239 111.909594,68.8722778 C112.305264,68.8515417 113.159981,68.7378737 113.159981,68.7378737 C113.159981,68.7378737 114.226677,68.6243941 114.760025,68.5676543 C115.336211,68.5063572 116.487526,68.2618868 116.487526,68.2618868 C116.487526,68.2618868 117.493057,68.0921528 117.995293,67.9463477 C118.500323,67.7997313 119.510385,67.5064985 119.510385,67.5064985 L125.032898,65.1349435 L128.095232,63.8200014 L131.00667,62.6791403 L132.824885,62.4039495 L135.385093,62.0138873 L137.729326,61.5317001 L140.60764,60.6169794 C140.60764,60.6169794 141.166961,60.4020426 141.446621,60.2945742 C141.606471,60.2331466 141.841861,60.1426907 142.045699,60.0643595 C142.273207,59.9769321 142.57977,59.8778416 142.729713,59.8537406 C143.445288,59.8277241 143.781255,59.8684618 143.923477,59.907625 C144.585167,60.1832612 144.615758,60.1990956 144.667258,60.2250683 C145.188142,60.6568681 145.327222,60.8488982 145.379378,60.9371916 C145.523656,61.1814385 145.723833,61.7300746 145.723833,61.7300746 L146.156752,63.4323179 L146.247721,65.1681052 L146.079361,67.4389632 L145.856872,68.6363215 C145.856872,68.6363215 145.693736,69.2520506 145.612168,69.5599152 C145.548877,69.7987986 145.472244,69.9952198 145.379374,70.2965242 C145.285617,70.6007065 145.220812,71.0062949 145.220812,71.0062949 C145.284968,71.8816546 145.294008,71.9908618 145.31637,72.382809 C145.354485,73.0508716 145.387607,73.7402081 145.371846,73.8882023 C145.340445,74.1830436 145.187262,75.1846095 145.077523,75.6243614 C144.997307,75.9458079 143.507302,79.8614632 143.507302,79.8614632 C143.507302,79.8614632 141.917765,83.0226136 141.475819,83.7698821 C141.082849,84.4343373 139.173738,87.0822827 139.173738,87.0822827 L136.383232,89.9936686 L133.727978,92.2151936 L129.919763,95.3639878 L127.061011,98.0296002 L124.446039,100.464187 L123.563712,101.410886 L122.80532,102.368277 L122.100844,103.32204 L121.447916,104.476845 L120.810953,105.732685 L120.058193,107.809565 C120.058193,107.809565 119.934695,108.7487 119.872947,109.218268 C119.813293,109.671906 119.827519,111.354865 119.894287,111.742706 C119.979482,112.237596 120.149874,113.227377 120.149874,113.227377 C120.149874,113.227377 120.486322,114.198424 120.654546,114.683947 C120.841889,115.224652 121.216576,116.306061 121.216576,116.306061 L122.226567,119.334413 L123.50888,123.113188 L124.491995,126.321553 L124.911498,128.38834 L126.653195,138.933779 L127.359215,144.137675 L127.829902,148.272736 L128.23422,153.019503 L131.728709,194.867388 L131.728709,194.867388" id="logo" fill="#FFFFFF" sketch:type="MSShapeGroup"></path>
    </g>
</svg>