<?xml version="1.0" encoding="UTF-8" standalone="no"?>
<svg width="32px" height="31px" viewBox="0 0 32 31" version="1.1" xmlns="http://www.w3.org/2000/svg" xmlns:xlink="http://www.w3.org/1999/xlink" xmlns:sketch="http://www.bohemiancoding.com/sketch/ns">
    <!-- Generator: Sketch 3.4.2 (15855) - http://www.bohemiancoding.com/sketch -->
    <title>Site-Logo</title>
    <desc>Created with Sketch.</desc>
    <defs></defs>
    <g id="Page-1" stroke="none" stroke-width="1" fill="none" fill-rule="evenodd" sketch:type="MSPage">
        <g id="Site-Logo" sketch:type="MSLayerGroup" transform="translate(1.000000, 1.000000)" stroke="#3F70A2" stroke-width="0.5" fill="#FFFFFF">
            <path d="M19.7592328,29.2299994 C25.7109536,27.2404135 30.0006183,21.6213138 30.0006183,15.0003092 C30.0006183,6.71586717 23.2847511,0 15.0003092,0 C6.71586717,0 0,6.71586717 0,15.0003092 C0,19.982504 2.42894112,24.3973892 6.1672536,27.125395 M6.1672536,27.125395 L7.58476251,25.1022163 L8.08833341,24.278192 L8.62242379,23.4236466 C8.62242379,23.4236466 8.94915322,22.8525567 9.106976,22.6079189 C9.28408211,22.3333905 9.5828479,21.7472566 9.5828479,21.7472566 C9.5828479,21.7472566 9.7547994,21.3554728 9.81305184,21.1410424 C9.87406405,20.9164535 9.93360921,20.3841754 9.93360921,20.3841754 L10.0028447,19.4025843 L10.0201178,18.393155 L10.0642488,17.3671589 C10.0642488,17.3671589 10.0608928,17.1537603 10.0745073,17.045606 C10.08607,16.9537518 10.0907863,16.7697008 10.0907863,16.7697008 C10.0907863,16.7697008 10.0834771,16.5790318 10.0756123,16.4801634 C10.0685475,16.3913526 10.0604382,16.190626 10.0604382,16.190626 L9.931551,15.4180672 L9.71984763,14.6048808 L9.40061378,13.1815933 L9.12313487,11.7833514 L8.94984206,10.9729695 L8.71106338,10.2072432 L8.39726888,9.46629078 C8.39726888,9.46629078 8.3397946,9.34919439 8.31105752,9.29064622 C8.28610386,9.2398064 8.23619656,9.13812677 8.23619656,9.13812677 C8.20766394,9.03815017 8.20268446,9.01127672 8.20438361,8.99481933 C8.23969613,8.88954698 8.2826035,8.841148 8.30196961,8.82009055 C8.36624961,8.78770719 8.39285751,8.7856008 8.41818192,8.78553038 C8.44954975,8.78544318 8.55383699,8.84759909 8.59228752,8.87710609 C8.63188366,8.90749227 8.74450173,9.018467 8.74450173,9.018467 L8.9730479,9.25595279 L9.24807257,9.58307673 L9.56832711,9.93024277 L9.9090729,10.303529 L10.3418515,10.7564985 L10.580737,11.0660267 L10.7719409,11.326178 C10.8408633,11.3906724 10.8721561,11.4199547 10.8721561,11.4199547 C10.8721561,11.4199547 10.9266688,11.4630761 10.9572234,11.4764619 C10.9864381,11.4892606 11.0514639,11.4985082 11.0514639,11.4985082 C11.138769,11.4914879 11.1764133,11.48153 11.2039771,11.4446237 C11.2288213,11.4113588 11.2444698,11.3506264 11.2444698,11.3506264 L11.2242696,10.7917412 C11.2242696,10.7917412 11.2097115,10.5139558 11.2025088,10.37652 C11.1971803,10.2748463 11.1702522,10.0006661 11.1620403,9.96379274 C11.144698,9.88592143 11.1100131,9.73017874 11.1100131,9.73017874 L10.9523162,9.23702384 C10.9523162,9.23702384 10.9143319,9.07888395 10.8953398,8.99981397 C10.8776118,8.92600714 10.8421558,8.77839336 10.8421558,8.77839336 C10.8421558,8.77839336 10.8224131,8.68637443 10.8198241,8.63697385 C10.817436,8.59140573 10.8272245,8.49348738 10.8272245,8.49348738 C10.8431172,8.45319889 10.8486705,8.41843704 10.8635341,8.39292666 C10.9009468,8.3287152 10.9412255,8.30965875 10.9412255,8.30965875 C10.9727075,8.29124739 11.0069236,8.28421085 11.0382784,8.28290619 C11.0981802,8.2804136 11.1860575,8.34703906 11.1860575,8.34703906 C11.1860575,8.34703906 11.2570151,8.40567103 11.292494,8.43498702 C11.3192288,8.45707782 11.4701142,8.61824707 11.5188222,8.67674088 C11.584446,8.75554919 11.7156938,8.91316581 11.7156938,8.91316581 L12.1054094,9.45705277 C12.1054094,9.45705277 12.1935363,9.60639219 12.2375997,9.68106189 C12.2698479,9.73570944 12.392139,9.98857975 12.446286,10.126153 C12.4913268,10.2405898 12.5338434,10.3508735 12.5384715,10.3709129 C12.5534182,10.4356312 12.6208114,10.6380314 12.6395614,10.6745133 C12.6624588,10.7190651 12.7082538,10.8081687 12.7082538,10.8081687 C12.8035882,10.8648935 12.8463265,10.8462104 12.8491165,10.8448488 C12.934399,10.7941961 12.9867567,10.7596338 13.0377196,10.725585 C13.1284845,10.6649442 13.2460584,10.6042954 13.2460584,10.6042954 C13.2460584,10.6042954 13.4147004,10.5238867 13.514638,10.4828638 C13.6133353,10.4423502 13.81073,10.3613227 13.81073,10.3613227 L14.4815136,10.165909 L15.0983901,10.0471205 L15.5642052,9.95904427 C15.5642052,9.95904427 15.7200609,9.93635183 15.7639745,9.93405043 C15.8307196,9.93178673 15.8728902,9.93184339 15.9165718,9.94931012 C15.966597,9.96931338 16.0386496,10.0256088 16.0386496,10.0256088 L16.1523272,10.1559279 C16.2313846,10.2360319 16.287046,10.2657918 16.287046,10.2657918 C16.287046,10.2657918 16.3858542,10.3013521 16.4352135,10.311926 C16.486929,10.3230047 16.5902705,10.3307497 16.5902705,10.3307497 C16.5902705,10.3307497 16.717839,10.3343952 16.7863767,10.3308032 C16.8457269,10.3276928 16.973934,10.3106427 16.973934,10.3106427 C16.973934,10.3106427 17.1339378,10.2936208 17.2139397,10.2851099 C17.3003674,10.2759154 17.4730639,10.2392449 17.4730639,10.2392449 C17.4730639,10.2392449 17.6238929,10.213785 17.699228,10.1919143 C17.7749824,10.1699219 17.926491,10.1259372 17.926491,10.1259372 L18.754865,9.77020513 L19.2142133,9.57296456 L19.6509275,9.40183608 L19.9236586,9.36055757 L20.3076884,9.30204849 L20.659322,9.22972072 L21.0910676,9.09251308 C21.0910676,9.09251308 21.1749653,9.06027266 21.2169143,9.04415252 C21.2408917,9.03493838 21.2762,9.02137009 21.3067755,9.0096204 C21.3409017,8.99650637 21.386886,8.98164282 21.4093773,8.97802768 C21.5167131,8.97412524 21.567108,8.98023588 21.5884412,8.9861103 C21.6876944,9.02745558 21.6922831,9.02983073 21.700008,9.03372663 C21.7781402,9.0984964 21.7990022,9.1273008 21.8068255,9.14054476 C21.8284672,9.17718163 21.8584936,9.25947672 21.8584936,9.25947672 L21.9234313,9.51481229 L21.9370765,9.7751794 L21.9118227,10.1158068 L21.8784494,10.2954099 C21.8784494,10.2954099 21.8539791,10.387769 21.841744,10.4339485 C21.8322503,10.4697808 21.8207554,10.4992439 21.806825,10.5444394 C21.7927615,10.5900666 21.7830408,10.6509046 21.7830408,10.6509046 C21.7926641,10.7822081 21.7940202,10.7985891 21.7973744,10.857381 C21.8030916,10.95759 21.80806,11.06099 21.8056957,11.0831891 C21.8009857,11.1274151 21.7780084,11.2776495 21.7615476,11.343612 C21.7495152,11.3918288 21.5260152,11.9791749 21.5260152,11.9791749 C21.5260152,11.9791749 21.2875856,12.4533457 21.2212939,12.5654356 C21.1623487,12.6651035 20.875983,13.0622938 20.875983,13.0622938 L20.4574087,13.4990001 L20.0591222,13.8322276 L19.4878919,14.304545 L19.0590807,14.7043853 L18.6668364,15.069572 L18.5344879,15.2115763 L18.4207295,15.3551844 L18.3150585,15.4982484 L18.2171197,15.6714685 L18.1215755,15.8598437 L18.008662,16.1713746 C18.008662,16.1713746 17.9901374,16.3122443 17.9808751,16.3826793 C17.9719271,16.4507247 17.9740611,16.7031676 17.9840761,16.7613435 C17.9968554,16.8355768 18.0224141,16.9840434 18.0224141,16.9840434 C18.0224141,16.9840434 18.0728811,17.1296999 18.0981146,17.2025281 C18.126216,17.2836335 18.1824187,17.4458443 18.1824187,17.4458443 L18.3339168,17.9000953 L18.5262631,18.4669095 L18.6737298,18.9481624 L18.7366549,19.2581794 L18.9979085,20.8399894 L19.1038113,21.6205707 L19.1744139,22.2408276 L19.2350615,22.9528401 L19.7592328,29.2299995 L19.7592328,29.2299994" id="Oval-1-Copy" sketch:type="MSShapeGroup"></path>
        </g>
    </g>
</svg>