<?xml version="1.0" encoding="UTF-8" standalone="no"?>
<svg width="1000px" height="975px" viewBox="0 0 1000 975" version="1.1" xmlns="http://www.w3.org/2000/svg" xmlns:xlink="http://www.w3.org/1999/xlink" xmlns:sketch="http://www.bohemiancoding.com/sketch/ns">
    <!-- Generator: Sketch 3.4.2 (15855) - http://www.bohemiancoding.com/sketch -->
    <title>White Logo for Title</title>
    <desc>Created with Sketch.</desc>
    <defs></defs>
    <g id="Page-1" stroke="none" stroke-width="1" fill="none" fill-rule="evenodd" sketch:type="MSPage">
        <g id="TheOverAnalyzed-v3.2" sketch:type="MSArtboardGroup" transform="translate(-6632.000000, -4452.000000)" fill="#FFFFFF">
            <g id="White-Logo-for-Title" sketch:type="MSLayerGroup" transform="translate(6632.000000, 4452.000000)">
                <path d="M658.630316,974.257898 C857.017759,907.943501 1000.00425,720.654674 1000.00425,499.971603 C1000.00425,223.844911 776.145671,0 500.002123,0 C223.858576,0 0,223.844911 0,499.971603 C0,666.031909 80.9633792,813.183359 205.571755,904.109849 M658.630316,974.257909 L658.630316,974.257898 M205.571755,904.109849 L252.82128,836.675777 L269.606702,809.210427 L287.409423,780.727784 C287.409423,780.727784 298.300226,761.692926 303.560899,753.538967 C309.46434,744.388727 319.423036,724.852443 319.423036,724.852443 C319.423036,724.852443 325.154658,711.793994 327.096376,704.646867 C329.130082,697.16115 331.11489,679.419918 331.11489,679.419918 L333.4227,646.702747 L333.998461,613.057712 L335.469471,578.860487 C335.469471,578.860487 335.357605,571.747753 335.811416,568.142887 C336.196832,565.081317 336.354039,558.946761 336.354039,558.946761 C336.354039,558.946761 336.110403,552.591616 335.848247,549.29626 C335.612759,546.336128 335.342455,539.64576 335.342455,539.64576 L331.046283,513.895793 L323.98962,486.79168 L313.348665,439.352435 L304.099518,392.747977 L298.323186,365.737338 L290.364027,340.215104 L279.904382,315.518601 C279.904382,315.518601 277.988605,311.615692 277.030717,309.664237 C276.198942,307.969708 274.535393,304.580649 274.535393,304.580649 C273.584322,301.248352 273.418342,300.35264 273.474979,299.804104 C274.652044,296.295297 276.082265,294.682123 276.727793,293.980261 C278.870424,292.9009 279.757341,292.830691 280.601472,292.828345 C281.647051,292.825438 285.123236,294.897142 286.404895,295.880632 C287.724746,296.893427 291.47862,300.592297 291.47862,300.592297 L299.096702,308.507878 L308.264041,319.411165 L318.939018,330.982472 L330.297026,343.424384 L344.722743,358.522197 L352.685461,368.839003 L359.058823,377.510046 C361.356195,379.65969 362.399273,380.635694 362.399273,380.635694 C362.399273,380.635694 364.216332,382.072962 365.234803,382.51912 C366.208609,382.945711 368.376104,383.25394 368.376104,383.25394 C371.286224,383.019949 372.541015,382.688043 373.459792,381.457929 C374.287918,380.349185 374.809527,378.324929 374.809527,378.324929 L374.136199,359.696865 C374.136199,359.696865 373.650936,350.438065 373.41085,345.857227 C373.233236,342.468365 372.335648,333.329733 372.061923,332.100718 C371.483852,329.505208 370.32771,324.314186 370.32771,324.314186 L365.071234,307.876963 C365.071234,307.876963 363.805111,302.60604 363.172049,299.970578 C362.581126,297.51054 361.399279,292.590463 361.399279,292.590463 C361.399279,292.590463 360.7412,289.523401 360.654903,287.876844 C360.5753,286.358024 360.901578,283.094332 360.901578,283.094332 C361.431327,281.751488 361.616434,280.592848 362.111878,279.742569 C363.358947,277.602352 364.701548,276.967186 364.701548,276.967186 C365.750931,276.353521 366.89145,276.118989 367.936594,276.075502 C369.933286,275.992423 372.86248,278.2131 372.86248,278.2131 C372.86248,278.2131 375.227698,280.167348 376.410307,281.144472 C377.301451,281.880774 382.330883,287.252665 383.954455,289.202309 C386.141882,291.829049 390.516736,297.082529 390.516736,297.082529 L403.507044,315.210693 C403.507044,315.210693 406.444558,320.188287 407.913315,322.677084 C408.988235,324.498529 413.064542,332.926887 414.869411,337.512307 C416.370745,341.326569 417.787942,345.00241 417.94221,345.670339 C418.440425,347.827447 420.68683,354.573601 421.311817,355.789569 C422.075054,357.274515 423.601527,360.244406 423.601527,360.244406 C426.779291,362.135085 428.203876,361.512361 428.296876,361.466978 C431.139579,359.778687 432.884806,358.626699 434.583541,357.491828 C437.608988,355.470623 441.528055,353.449154 441.528055,353.449154 C441.528055,353.449154 447.149361,350.769068 450.480561,349.401747 C453.770418,348.051395 460.350132,345.350691 460.350132,345.350691 L482.709222,338.837401 L503.271436,334.878093 L518.79835,331.942447 C518.79835,331.942447 523.993455,331.186091 525.457219,331.109383 C527.682019,331.033933 529.08768,331.035822 530.543711,331.618 C532.211193,332.284725 534.612904,334.161094 534.612904,334.161094 L538.402096,338.504725 C541.037299,341.174651 542.892648,342.166572 542.892648,342.166572 C542.892648,342.166572 546.186201,343.351824 547.831487,343.704262 C549.555307,344.073522 552.999968,344.331667 552.999968,344.331667 C552.999968,344.331667 557.252182,344.453174 559.536734,344.333453 C561.51504,344.229781 565.788542,343.661487 565.788542,343.661487 C565.788542,343.661487 571.121914,343.094135 573.7886,342.81046 C576.669475,342.503999 582.425933,341.281746 582.425933,341.281746 C582.425933,341.281746 587.453484,340.433145 589.964613,339.704179 C592.489716,338.971156 597.539922,337.505111 597.539922,337.505111 L625.151936,325.648298 L640.463296,319.074121 L655.020196,313.370278 L664.111084,311.994435 L676.911871,310.044283 L688.632797,307.633542 L703.02408,303.06031 C703.02408,303.06031 705.820627,301.985713 707.218901,301.448415 C708.018136,301.141302 709.19506,300.689059 710.214229,300.297435 C711.351749,299.860333 712.884532,299.36492 713.63423,299.244425 C717.212033,299.114354 718.891834,299.318025 719.602931,299.513826 C722.911316,300.891895 723.06427,300.97106 723.321761,301.100913 C725.926128,303.259737 726.621516,304.21981 726.882289,304.661241 C727.603669,305.882377 728.604532,308.625335 728.604532,308.625335 L730.769083,317.135861 L731.223917,325.814093 L730.382136,337.167462 L729.269714,343.153768 C729.269714,343.153768 728.454051,346.232163 728.046219,347.771361 C727.729768,348.965682 727.346613,349.947708 726.882272,351.454108 C726.413496,352.974896 726.089479,355.002673 726.089479,355.002673 C726.41025,359.379117 726.455451,359.925108 726.567257,361.884685 C726.757827,365.224728 726.923436,368.67113 726.844631,369.411041 C726.687632,370.885128 725.921733,375.892552 725.373049,378.091133 C724.971976,379.698235 717.522099,399.274923 717.522099,399.274923 C717.522099,399.274923 709.574575,415.079393 707.364887,418.815432 C705.40008,422.137438 695.854712,435.376091 695.854712,435.376091 L681.902465,449.93184 L668.626463,461.038564 L649.585768,476.781258 L635.292296,490.108239 L622.2177,502.280184 L617.806154,507.013296 L614.014269,511.799863 L610.491959,516.568293 L607.227385,522.341849 L604.042633,528.620538 L600.278908,539.004096 C600.278908,539.004096 599.661433,543.699392 599.352696,546.04704 C599.054432,548.315046 599.125563,556.729156 599.459393,558.668204 C599.885364,561.142456 600.737306,566.09096 600.737306,566.09096 C600.737306,566.09096 602.419511,570.945798 603.260614,573.373217 C604.197311,576.076522 606.070706,581.483132 606.070706,581.483132 L611.120561,596.623661 L617.531999,615.516003 L622.447476,631.556525 L624.544944,641.889626 L633.253257,694.612543 L636.783288,720.629909 L639.136671,741.303537 L641.158222,765.03545 L658.630316,974.257901 L658.630316,974.257898" id="Total-Smokey" sketch:type="MSShapeGroup"></path>
            </g>
        </g>
    </g>
</svg>