<?xml version="1.0" encoding="UTF-8" standalone="no"?>
<svg width="500px" height="500px" viewBox="0 0 500 500" version="1.1" xmlns="http://www.w3.org/2000/svg" xmlns:xlink="http://www.w3.org/1999/xlink">
    <!-- Generator: Sketch Beta 3.7 (28138) - http://www.bohemiancoding.com/sketch -->
    <title>Circle &amp; Outline</title>
    <desc>Created with Sketch Beta.</desc>
    <defs></defs>
    <g id="Page-1" stroke="none" stroke-width="1" fill="none" fill-rule="evenodd">
        <g id="Favicon-Circle" transform="translate(-250.000000, -250.000000)">
            <g id="Circle-&amp;-Outline" transform="translate(250.000000, 250.000000)">
                <circle id="White-Fill" fill="#FFFFFF" cx="250" cy="250" r="250"></circle>
                <path d="M329.313759,487.156617 C428.50706,453.997535 500,360.347803 500,250 C500,111.928813 388.071187,0 250,0 C111.928813,0 0,111.928813 0,250 C0,333.034869 40.4815177,406.614773 102.785441,452.0806 M329.313759,487.156618 L329.313759,487.156617 M102.785441,452.0806 L126.410103,418.361649 L134.802779,404.628194 L143.704101,390.386064 C143.704101,390.386064 149.14948,380.868094 151.779805,376.790883 C154.731513,372.215503 159.71084,362.446806 159.71084,362.446806 C159.71084,362.446806 162.576639,355.917211 163.547494,352.343445 C164.564342,348.600373 165.556742,339.729254 165.556742,339.729254 L166.710642,323.369739 L166.998521,306.546266 L167.734023,289.446682 C167.734023,289.446682 167.678091,285.890113 167.904995,284.087578 C168.097702,282.556706 168.176305,279.489254 168.176305,279.489254 C168.176305,279.489254 168.054488,276.311501 167.92341,274.663729 C167.805667,273.183579 167.670515,269.838205 167.670515,269.838205 L165.522439,256.962491 L161.994122,243.409664 L156.673667,219.688695 L152.049113,196.385142 L149.16096,182.879055 L145.181397,170.117214 L139.951597,157.768261 C139.951597,157.768261 138.993712,155.816695 138.51477,154.840913 C138.098885,153.9936 137.267114,152.298974 137.267114,152.298974 C136.79158,150.632731 136.70859,150.18485 136.736909,149.910566 C137.325439,148.156063 138.040547,147.34943 138.363309,146.998479 C139.43462,146.458768 139.878076,146.423662 140.30014,146.422488 C140.822927,146.421035 142.561013,147.456946 143.20184,147.948719 C143.861762,148.455145 145.738691,150.304685 145.738691,150.304685 L149.547716,154.2627 L154.131366,159.714654 L159.468832,165.500635 L165.147812,171.721945 L172.36064,179.27128 L176.341982,184.429976 L179.528649,188.765744 C180.67733,189.840627 181.198867,190.328656 181.198867,190.328656 C181.198867,190.328656 182.107393,191.047332 182.616626,191.270423 C183.103527,191.483731 184.18727,191.637854 184.18727,191.637854 C185.642324,191.520852 186.269716,191.354889 186.729103,190.739798 C187.143165,190.185394 187.403968,189.173208 187.403968,189.173208 L187.067305,179.858648 C187.067305,179.858648 186.824675,175.228985 186.704632,172.938436 C186.615826,171.243908 186.167034,166.674333 186.030171,166.05979 C185.741137,164.761961 185.163069,162.166303 185.163069,162.166303 L182.534842,153.947225 C182.534842,153.947225 181.901783,151.311613 181.585254,149.993808 C181.289793,148.763719 180.698872,146.303541 180.698872,146.303541 C180.698872,146.303541 180.369834,144.769923 180.326686,143.946597 C180.286884,143.187144 180.450023,141.555205 180.450023,141.555205 C180.714896,140.883745 180.807449,140.304392 181.05517,139.879229 C181.678702,138.80906 182.35,138.491459 182.35,138.491459 C182.874689,138.184609 183.444946,138.067336 183.967516,138.045591 C184.965858,138.004049 186.430448,139.114451 186.430448,139.114451 C186.430448,139.114451 187.613052,140.09163 188.204354,140.58022 C188.649924,140.948392 191.16463,143.63449 191.976412,144.609367 C193.070121,145.922812 195.257539,148.549701 195.257539,148.549701 L201.752665,157.614298 C201.752665,157.614298 203.221416,160.103237 203.955791,161.347706 C204.493249,162.25848 206.531394,166.472898 207.433825,168.765738 C208.184488,170.672978 208.893084,172.511003 208.970218,172.844986 C209.219324,173.923601 210.342522,177.29687 210.655014,177.904888 C211.036631,178.647403 211.799864,180.132433 211.799864,180.132433 C213.38874,181.077827 214.101029,180.766447 214.147529,180.743754 C215.568874,179.899561 216.441484,179.323534 217.290848,178.756066 C218.803565,177.745406 220.76309,176.734615 220.76309,176.734615 C220.76309,176.734615 223.573731,175.394496 225.239324,174.710796 C226.884246,174.035582 230.174088,172.685153 230.174088,172.685153 L241.353586,169.428323 L251.634649,167.448557 L259.398073,165.98065 C259.398073,165.98065 261.995615,165.602451 262.727494,165.564094 C263.839889,165.526367 264.542717,165.527312 265.270729,165.818418 C266.104467,166.151799 267.305317,167.090037 267.305317,167.090037 L269.199905,169.261976 C270.517501,170.597014 271.445172,171.093003 271.445172,171.093003 C271.445172,171.093003 273.091941,171.685663 273.91458,171.861892 C274.776487,172.046532 276.49881,172.175612 276.49881,172.175612 C276.49881,172.175612 278.624908,172.236369 279.767179,172.176505 C280.756328,172.124666 282.89307,171.840503 282.89307,171.840503 C282.89307,171.840503 285.559744,171.556811 286.893082,171.414965 C288.333513,171.261726 291.21173,170.650565 291.21173,170.650565 C291.21173,170.650565 293.725495,170.22624 294.981054,169.861736 C296.2436,169.495204 298.768692,168.76214 298.768692,168.76214 L312.574641,162.833397 L320.230288,159.546122 L327.508707,156.694038 L332.054132,156.006078 L338.454498,155.030946 L344.314936,153.825508 L351.510547,151.538762 C351.510547,151.538762 352.908815,151.001433 353.607949,150.732768 C354.007565,150.579203 354.596024,150.353069 355.105606,150.157245 C355.674364,149.938682 356.440752,149.690962 356.8156,149.630711 C358.604494,149.565671 359.444391,149.667513 359.799938,149.765419 C361.454123,150.454492 361.5306,150.494077 361.659345,150.559008 C362.961523,151.638481 363.309215,152.118544 363.439601,152.339272 C363.80029,152.949875 364.300719,154.321432 364.300719,154.321432 L365.38299,158.576937 L365.610406,162.916299 L365.189517,168.593306 L364.633309,171.586629 C364.633309,171.586629 364.225479,173.125914 364.021564,173.895557 C363.863339,174.492751 363.671762,174.983792 363.439593,175.737035 C363.205206,176.497472 363.043198,177.511418 363.043198,177.511418 C363.203583,179.699764 363.226183,179.972776 363.282086,180.95262 C363.377371,182.622736 363.460175,184.346035 363.420772,184.716012 C363.342273,185.453097 362.959325,187.956951 362.684984,189.056304 C362.484449,189.8599 358.759526,199.6488 358.759526,199.6488 C358.759526,199.6488 354.785781,207.551484 353.680942,209.41961 C352.698542,211.080707 347.925879,217.70041 347.925879,217.70041 L340.949785,224.978698 L334.311812,230.532375 L324.791505,238.404169 L317.644799,245.068038 L311.107529,251.154356 L308.901765,253.521046 L307.005831,255.914466 L305.244683,258.298816 L303.612403,261.185758 L302.020034,264.325281 L300.138179,269.517355 C300.138179,269.517355 299.829443,271.865136 299.675075,273.039027 C299.525944,274.173095 299.56151,278.380388 299.728424,279.349967 C299.941408,280.587164 300.367378,283.061556 300.367378,283.061556 C300.367378,283.061556 301.208477,285.489113 301.629026,286.702892 C302.097373,288.054621 303.034066,290.758079 303.034066,290.758079 L305.558983,298.328774 L308.764688,307.775481 L311.222416,315.796198 L312.271146,320.963042 L316.625284,347.325998 L318.390292,360.33542 L319.566979,370.672821 L320.57775,382.539451 L329.313759,487.156618 L329.313759,487.156617" id="Total-Smokey" fill="#3F70A2"></path>
            </g>
        </g>
    </g>
</svg>