<?xml version="1.0" encoding="UTF-8" standalone="no"?>
<svg width="1990px" height="1940px" viewBox="0 0 1990 1940" version="1.1" xmlns="http://www.w3.org/2000/svg" xmlns:xlink="http://www.w3.org/1999/xlink" xmlns:sketch="http://www.bohemiancoding.com/sketch/ns">
    <!-- Generator: Sketch 3.3.3 (12072) - http://www.bohemiancoding.com/sketch -->
    <title>Safari Pinned Tabs</title>
    <desc>Created with Sketch.</desc>
    <defs></defs>
    <g id="Page-1" stroke="none" stroke-width="1" fill="none" fill-rule="evenodd" sketch:type="MSPage">
        <g id="Safari-Pinned-Tabs" sketch:type="MSLayerGroup" fill="#000000">
            <path d="M418.36497,1804.80724 C164.983046,1624.40909 0.124437327,1328.70415 0.124437327,994.494411 C0.124437327,445.250314 445.374751,0 994.618848,0 C1543.86294,0 1989.11326,445.250314 1989.11326,994.494411 C1989.11326,1435.08036 1702.6066,1808.74909 1305.74087,1939.35302 M1305.71694,1939.36089 C1305.72491,1939.35827 1277.27411,1523.75838 1277.27411,1523.75838 L1273.25329,1476.5532 L1268.57246,1435.43126 L1261.5513,1383.68008 L1244.23064,1278.80886 L1240.05882,1258.25528 L1230.28203,1226.34906 L1217.52981,1188.77027 L1207.48575,1158.65423 C1207.48575,1158.65423 1203.75961,1147.89993 1201.89653,1142.52279 C1200.2236,1137.6944 1196.87773,1128.03764 1196.87773,1128.03764 C1196.87773,1128.03764 1195.18323,1118.19456 1194.33598,1113.27303 C1193.672,1109.41606 1193.53052,1092.67955 1194.12376,1088.16825 C1194.73784,1083.49854 1195.96598,1074.15912 1195.96598,1074.15912 L1203.45196,1053.50517 L1209.78636,1041.01623 L1216.27953,1029.53204 L1223.28534,1020.04715 L1230.82732,1010.52618 L1239.6018,1001.11154 L1265.60691,976.900312 L1294.03633,950.391597 L1331.90789,919.077785 L1358.31359,896.985386 L1386.06433,868.032528 C1386.06433,868.032528 1405.04988,841.699506 1408.95784,835.091699 C1413.35286,827.660338 1429.16033,796.223647 1429.16033,796.223647 C1429.16033,796.223647 1443.97798,757.283632 1444.77571,754.086943 C1445.86703,749.713743 1447.39039,739.75347 1447.70266,736.821362 C1447.8594,735.349604 1447.53001,728.49436 1447.15097,721.850678 C1446.92859,717.952881 1446.83868,716.866849 1446.5207,714.268065 C1446.26821,712.204601 1446.20067,708.161658 1446.20067,708.161658 C1446.20067,708.161658 1446.84514,704.128204 1447.77752,701.103202 C1448.70109,698.106821 1449.46318,696.153471 1450.09259,693.777847 C1450.90376,690.716226 1452.5261,684.592985 1452.5261,684.592985 L1454.73868,672.685617 L1456.41297,650.102616 L1455.50831,632.840733 L1451.20306,615.912435 C1451.20306,615.912435 1449.21237,610.456414 1447.77756,608.027451 C1447.25889,607.1494 1445.87577,605.239719 1443.73084,602.968984 C1443.09069,602.236911 1441.70147,601.452821 1440.69574,600.945599 C1440.18359,600.687308 1439.87937,600.52984 1436.64386,598.92248 C1435.76133,598.512561 1434.46092,598.108658 1433.29906,597.788721 C1431.8847,597.399255 1428.54361,596.994131 1426.70737,596.924882 C1425.80878,596.890995 1424.98103,596.874071 1421.42744,597.252857 C1419.9363,597.492534 1416.88762,598.47796 1414.62512,599.347399 C1412.59801,600.126379 1410.25714,601.025936 1408.66747,601.636815 C1405.88634,602.705556 1400.32406,604.843038 1400.32406,604.843038 L1371.70009,613.93966 L1348.3874,618.734867 L1322.9269,622.613918 L1304.8453,625.350608 L1275.89192,636.696129 L1245.43793,649.772833 L1190.51819,673.357235 C1190.51819,673.357235 1180.47344,676.273347 1175.45106,677.731404 C1170.45647,679.181391 1160.45677,680.869345 1160.45677,680.869345 C1160.45677,680.869345 1149.0073,683.300529 1143.27729,683.910111 C1137.97331,684.474371 1127.36534,685.602891 1127.36534,685.602891 C1127.36534,685.602891 1118.86543,686.733285 1114.93062,686.9395 C1110.38669,687.177637 1101.92912,686.935947 1101.92912,686.935947 C1101.92912,686.935947 1095.07776,686.422471 1091.64912,685.687974 C1088.37668,684.986939 1081.82587,682.629353 1081.82587,682.629353 C1081.82587,682.629353 1078.13561,680.656322 1076.51176,679.33206 C1075.15841,678.228394 1074.2476,676.449235 1072.89425,675.345569 L1065.35762,666.705648 C1065.35762,666.705648 1060.58067,662.97336 1057.26408,661.647176 C1054.36806,660.489164 1051.57223,660.485407 1051.18289,660.42398 C1049.84857,660.213465 1048.38816,660.570446 1047.14715,660.635484 C1044.23575,660.788064 1033.90279,662.292533 1033.90279,662.292533 L1003.02007,668.131831 L962.122244,676.007295 L917.650463,688.962888 C917.650463,688.962888 904.563546,694.334862 898.020087,697.020849 C891.394397,699.74059 880.213732,705.071552 880.213732,705.071552 C880.213732,705.071552 872.418786,709.092457 866.401234,713.112839 C863.022485,715.370213 859.551262,717.661633 856.948915,719.313672 C856.130221,719.8334 855.050564,720.456956 853.897184,721.019816 C853.712209,721.110086 850.878738,722.348748 847.84367,721.337068 C846.697689,720.759682 845.704211,719.165382 844.55823,718.587996 C844.55823,718.587996 841.522104,712.680581 840.004042,709.726874 C838.760955,707.30819 834.292901,693.889408 833.301961,689.5987 C832.995126,688.270122 830.176349,680.958502 827.190227,673.371549 C823.600378,664.250685 815.492686,647.485826 813.35469,643.862788 C810.433362,638.912319 804.590706,629.011381 804.590706,629.011381 L778.753246,592.952626 C778.753246,592.952626 770.05175,582.502922 765.701002,577.27807 C762.471749,573.400031 752.46831,562.714795 750.695843,561.250216 C748.343657,559.306617 743.639286,555.419421 743.639286,555.419421 C743.639286,555.419421 737.813179,551.00227 733.841798,551.167522 C731.763027,551.254021 729.494558,551.72053 727.407357,552.941172 C727.407357,552.941172 724.736951,554.204581 722.256556,558.461689 C721.271128,560.15298 720.902953,562.457633 719.849293,565.128685 C719.849293,565.128685 719.200333,571.620499 719.358661,574.641585 C719.530305,577.916755 720.839211,584.017452 720.839211,584.017452 C720.839211,584.017452 723.18988,593.803983 724.365215,598.697248 C725.624361,603.939448 728.142655,614.423848 728.142655,614.423848 L738.59768,647.11915 C738.59768,647.11915 740.897222,657.444617 742.046994,662.607351 C742.591429,665.051986 744.376713,683.22965 744.729983,689.97044 C745.20751,699.082192 746.172688,717.498882 746.172688,717.498882 L747.511923,754.551987 C747.511923,754.551987 746.474455,758.578438 744.827328,760.783842 C742.999899,763.230662 740.504145,763.890857 739.606758,764.099978 C738.011354,764.471759 736.311378,763.984508 734.715974,764.356289 C734.715974,764.356289 730.40487,763.743191 728.467991,762.894658 C726.442271,762.007205 722.828178,759.148332 722.828178,759.148332 C722.828178,759.148332 720.753518,757.206961 719.716187,756.236276 C718.538822,755.134552 717.361456,754.032827 716.18409,752.931103 L703.507603,735.68352 L687.669917,715.162349 L658.977455,685.131269 L636.386607,660.383046 L615.154292,637.366545 L596.92064,615.678802 L581.768429,599.933909 C581.768429,599.933909 574.302049,592.576484 571.676892,590.561931 C569.127697,588.605671 565.598185,586.09175 565.598185,586.09175 C565.598185,586.09175 562.213635,584.484841 560.133999,584.490622 C558.455039,584.49529 556.690979,584.634942 555.484448,585.140967 C554.564604,585.526753 553.496647,585.62137 552.42933,586.7819 C551.145388,588.177975 549.394255,589.816979 549.394255,589.816979 C549.394255,589.816979 548.300707,591.386742 547.295432,593.112496 C546.433985,594.591342 546.105671,596.950798 545.959547,598.366113 C545.846898,599.457208 546.17703,601.23887 546.607482,602.966245 C547.232375,605.473899 548.068691,607.867145 548.068691,607.867145 C548.068691,607.867145 551.377456,614.608327 553.031839,617.978918 C554.93706,621.860559 558.747501,629.62384 558.747501,629.62384 L579.551526,678.747686 L595.382132,729.513993 L606.87114,783.24089 L625.267506,875.941878 L646.432151,970.303339 L660.467712,1024.21617 L669.012712,1075.43546 C669.012712,1075.43546 669.550341,1088.74328 670.018722,1094.63128 C670.540145,1101.18608 671.024733,1113.8271 671.024733,1113.8271 C671.024733,1113.8271 670.71205,1126.02936 669.945466,1132.11913 L669.265345,1153.43752 L666.339535,1221.45926 L665.194359,1288.38265 L660.60417,1353.46041 C660.60417,1353.46041 656.656428,1388.74952 652.611428,1403.63937 C648.749389,1417.85573 637.349308,1443.83031 637.349308,1443.83031 C637.349308,1443.83031 617.541663,1482.68996 605.799838,1500.89071 C595.336465,1517.10976 522.033493,1639.95428 522.033493,1639.95428 L418.36497,1804.80724" id="TheOverAnalyzed" sketch:type="MSShapeGroup"></path>
        </g>
    </g>
</svg>