<?xml version="1.0" encoding="UTF-8" standalone="no"?>
<svg width="500px" height="500px" viewBox="0 0 500 500" version="1.1" xmlns="http://www.w3.org/2000/svg" xmlns:xlink="http://www.w3.org/1999/xlink" xmlns:sketch="http://www.bohemiancoding.com/sketch/ns">
    <!-- Generator: Sketch 3.5.1 (25234) - http://www.bohemiancoding.com/sketch -->
    <title>Face</title>
    <desc>Created with Sketch.</desc>
    <defs></defs>
    <g id="Page-1" stroke="none" stroke-width="1" fill="none" fill-rule="evenodd" sketch:type="MSPage">
        <g id="Safari-Pinned-Tabs" sketch:type="MSArtboardGroup" transform="translate(-250.000000, -250.000000)" fill="#000000">
            <g id="Face" sketch:type="MSLayerGroup" transform="translate(250.000000, 250.000000)">
                <path d="M250,500 C388.071187,500 500,388.071187 500,250 C500,111.928813 388.071187,0 250,0 C111.928813,0 0,111.928813 0,250 C0,388.071187 111.928813,500 250,500 Z M58.9210526,204.736842 L58.9210526,186.842105 L150.289474,186.842105 C155.482482,186.842105 159.289462,185.684222 161.710526,183.368421 C164.131591,181.05262 165.342105,178.140368 165.342105,174.631579 C165.342105,172.385954 164.657902,170.192993 163.289474,168.052632 C161.921046,165.91227 160.394745,164.175445 158.710526,162.842105 L169.236842,149.789474 C171.973698,151.824572 174.324552,153.964901 176.289474,156.210526 C178.254396,158.456152 179.885958,160.701743 181.184211,162.947368 C182.482463,165.192994 183.447365,167.421042 184.078947,169.631579 C184.710529,171.842116 185.026316,173.929815 185.026316,175.894737 C185.026316,179.263175 184.500005,182.5263 183.447368,185.684211 C182.394732,188.842121 180.763169,191.701742 178.552632,194.263158 C176.342094,196.824574 173.517561,198.982447 170.078947,200.736842 C166.640334,202.491237 162.500024,203.684207 157.657895,204.315789 C160.184223,206.631591 162.482446,209.157881 164.552632,211.894737 C166.622817,214.631593 168.429817,217.561388 169.973684,220.684211 C171.517552,223.807033 172.710522,227.070158 173.552632,230.473684 C174.394741,233.87721 174.815789,237.438578 174.815789,241.157895 C174.815789,249.228111 173.254402,256.578914 170.131579,263.210526 C167.008756,269.842138 162.798272,275.508748 157.5,280.210526 C152.201728,284.912304 146.043895,288.561391 139.026316,291.157895 C132.008737,293.754399 124.605302,295.052632 116.815789,295.052632 C109.096453,295.052632 101.745649,293.754399 94.7631579,291.157895 C87.7806668,288.561391 81.6403774,284.912304 76.3421053,280.210526 C71.0438332,275.508748 66.8158053,269.842138 63.6578947,263.210526 C60.4999842,256.578914 58.9210526,249.228111 58.9210526,241.157895 C58.9210526,233.578909 60.4999842,226.754416 63.6578947,220.684211 C66.8158053,214.614005 70.8157653,209.298268 75.6578947,204.736842 L58.9210526,204.736842 Z M79.9736842,241.157895 C79.9736842,246.842134 81.0438489,251.912258 83.1842105,256.368421 C85.3245721,260.824584 88.1315616,264.596476 91.6052632,267.684211 C95.0789647,270.771945 99.00875,273.122799 103.394737,274.736842 C107.780724,276.350885 112.254363,277.157895 116.815789,277.157895 C121.30704,277.157895 125.763136,276.298254 130.184211,274.578947 C134.605285,272.859641 138.552614,270.421068 142.026316,267.263158 C145.500017,264.105247 148.307007,260.315812 150.447368,255.894737 C152.58773,251.473662 153.657895,246.561431 153.657895,241.157895 C153.657895,235.894711 152.570186,231.03511 150.394737,226.578947 C148.219287,222.122785 145.394754,218.298262 141.921053,215.105263 C138.447351,211.912265 134.517566,209.403518 130.131579,207.578947 C125.745592,205.754377 121.30704,204.842105 116.815789,204.842105 C112.324539,204.842105 107.885987,205.754377 103.5,207.578947 C99.1140132,209.403518 95.1842279,211.912265 91.7105263,215.105263 C88.2368247,218.298262 85.4122916,222.122785 83.2368421,226.578947 C81.0613926,231.03511 79.9736842,235.894711 79.9736842,241.157895 Z M101.868421,239.578947 C101.868421,237.754377 102.254382,235.982465 103.026316,234.263158 C103.798249,232.543851 104.850871,231.035094 106.184211,229.736842 C107.517551,228.43859 109.096482,227.385969 110.921053,226.578947 C112.745623,225.771926 114.675428,225.368421 116.710526,225.368421 C118.745624,225.368421 120.675429,225.771926 122.5,226.578947 C124.324571,227.385969 125.921046,228.43859 127.289474,229.736842 C128.657902,231.035094 129.728066,232.543851 130.5,234.263158 C131.271934,235.982465 131.657895,237.754377 131.657895,239.578947 C131.657895,241.403518 131.271934,243.17543 130.5,244.894737 C129.728066,246.614044 128.657902,248.140344 127.289474,249.473684 C125.921046,250.807024 124.324571,251.877189 122.5,252.684211 C120.675429,253.491232 118.745624,253.894737 116.710526,253.894737 C114.675428,253.894737 112.745623,253.491232 110.921053,252.684211 C109.096482,251.877189 107.517551,250.807024 106.184211,249.473684 C104.850871,248.140344 103.798249,246.614044 103.026316,244.894737 C102.254382,243.17543 101.868421,241.403518 101.868421,239.578947 Z M303.973684,319.368421 L303.973684,336.105263 L197.657895,336.105263 L197.657895,319.368421 L303.973684,319.368421 Z M317.552632,204.736842 L317.552632,186.842105 L408.921053,186.842105 C414.114061,186.842105 417.921041,185.684222 420.342105,183.368421 C422.76317,181.05262 423.973684,178.140368 423.973684,174.631579 C423.973684,172.385954 423.289481,170.192993 421.921053,168.052632 C420.552625,165.91227 419.026324,164.175445 417.342105,162.842105 L427.868421,149.789474 C430.605277,151.824572 432.956131,153.964901 434.921053,156.210526 C436.885975,158.456152 438.517537,160.701743 439.815789,162.947368 C441.114042,165.192994 442.078944,167.421042 442.710526,169.631579 C443.342108,171.842116 443.657895,173.929815 443.657895,175.894737 C443.657895,179.263175 443.131584,182.5263 442.078947,185.684211 C441.026311,188.842121 439.394748,191.701742 437.184211,194.263158 C434.973673,196.824574 432.14914,198.982447 428.710526,200.736842 C425.271913,202.491237 421.131603,203.684207 416.289474,204.315789 C418.815802,206.631591 421.114025,209.157881 423.184211,211.894737 C425.254396,214.631593 427.061396,217.561388 428.605263,220.684211 C430.149131,223.807033 431.342101,227.070158 432.184211,230.473684 C433.02632,233.87721 433.447368,237.438578 433.447368,241.157895 C433.447368,249.228111 431.885981,256.578914 428.763158,263.210526 C425.640335,269.842138 421.429851,275.508748 416.131579,280.210526 C410.833307,284.912304 404.675474,288.561391 397.657895,291.157895 C390.640316,293.754399 383.236881,295.052632 375.447368,295.052632 C367.728032,295.052632 360.377228,293.754399 353.394737,291.157895 C346.412246,288.561391 340.271956,284.912304 334.973684,280.210526 C329.675412,275.508748 325.447384,269.842138 322.289474,263.210526 C319.131563,256.578914 317.552632,249.228111 317.552632,241.157895 C317.552632,233.578909 319.131563,226.754416 322.289474,220.684211 C325.447384,214.614005 329.447344,209.298268 334.289474,204.736842 L317.552632,204.736842 Z M338.605263,241.157895 C338.605263,246.842134 339.675428,251.912258 341.815789,256.368421 C343.956151,260.824584 346.763141,264.596476 350.236842,267.684211 C353.710544,270.771945 357.640329,273.122799 362.026316,274.736842 C366.412303,276.350885 370.885942,277.157895 375.447368,277.157895 C379.938619,277.157895 384.394715,276.298254 388.815789,274.578947 C393.236864,272.859641 397.184193,270.421068 400.657895,267.263158 C404.131596,264.105247 406.938586,260.315812 409.078947,255.894737 C411.219309,251.473662 412.289474,246.561431 412.289474,241.157895 C412.289474,235.894711 411.201765,231.03511 409.026316,226.578947 C406.850866,222.122785 404.026333,218.298262 400.552632,215.105263 C397.07893,211.912265 393.149145,209.403518 388.763158,207.578947 C384.377171,205.754377 379.938619,204.842105 375.447368,204.842105 C370.956118,204.842105 366.517566,205.754377 362.131579,207.578947 C357.745592,209.403518 353.815807,211.912265 350.342105,215.105263 C346.868404,218.298262 344.043871,222.122785 341.868421,226.578947 C339.692972,231.03511 338.605263,235.894711 338.605263,241.157895 Z M360.5,239.578947 C360.5,237.754377 360.885961,235.982465 361.657895,234.263158 C362.429828,232.543851 363.482449,231.035094 364.815789,229.736842 C366.149129,228.43859 367.728061,227.385969 369.552632,226.578947 C371.377202,225.771926 373.307007,225.368421 375.342105,225.368421 C377.377203,225.368421 379.307008,225.771926 381.131579,226.578947 C382.956149,227.385969 384.552625,228.43859 385.921053,229.736842 C387.289481,231.035094 388.359645,232.543851 389.131579,234.263158 C389.903513,235.982465 390.289474,237.754377 390.289474,239.578947 C390.289474,241.403518 389.903513,243.17543 389.131579,244.894737 C388.359645,246.614044 387.289481,248.140344 385.921053,249.473684 C384.552625,250.807024 382.956149,251.877189 381.131579,252.684211 C379.307008,253.491232 377.377203,253.894737 375.342105,253.894737 C373.307007,253.894737 371.377202,253.491232 369.552632,252.684211 C367.728061,251.877189 366.149129,250.807024 364.815789,249.473684 C363.482449,248.140344 362.429828,246.614044 361.657895,244.894737 C360.885961,243.17543 360.5,241.403518 360.5,239.578947 Z" id="Circle" sketch:type="MSShapeGroup"></path>
            </g>
        </g>
    </g>
</svg>