<?xml version="1.0" encoding="UTF-8" standalone="no"?>
<svg width="1966px" height="1916px" viewBox="0 0 1966 1916" version="1.1" xmlns="http://www.w3.org/2000/svg" xmlns:xlink="http://www.w3.org/1999/xlink" xmlns:sketch="http://www.bohemiancoding.com/sketch/ns">
    <!-- Generator: Sketch 3.3.3 (12072) - http://www.bohemiancoding.com/sketch -->
    <title>Oval 1</title>
    <desc>Created with Sketch.</desc>
    <defs></defs>
    <g id="Page-1" stroke="none" stroke-width="1" fill="none" fill-rule="evenodd" sketch:type="MSPage">
        <g id="Logo-Circle" sketch:type="MSLayerGroup" fill="#000000">
            <path d="M1294.8617,1915.49982 C1684.88976,1785.11831 1966,1416.88756 1966,983 C1966,440.104091 1525.89591,0 983,0 C440.104091,0 0,440.104091 0,983 C0,1309.4931 159.173328,1598.80929 404.152355,1777.58092 M1294.8617,1915.49982 L1294.8617,1915.49982 M404.152355,1777.58092 L497.044525,1644.998 L530.044526,1590.99806 L565.044527,1534.998 C565.044527,1534.998 586.455755,1497.57335 596.798194,1481.54175 C608.404309,1463.55136 627.983022,1425.14084 627.983022,1425.14084 C627.983022,1425.14084 639.251343,1399.46647 643.068745,1385.41442 C647.066994,1370.69667 650.969109,1335.81543 650.969109,1335.81543 L655.506246,1271.48981 L656.638186,1205.33992 L659.53018,1138.10435 C659.53018,1138.10435 659.310253,1124.11993 660.20244,1117.03236 C660.960164,1111.01297 661.269233,1098.95175 661.269233,1098.95175 C661.269233,1098.95175 660.790246,1086.45682 660.27485,1079.97778 C659.811882,1074.15783 659.280467,1061.00382 659.280467,1061.00382 L650.834228,1010.37651 L636.960887,957.086799 L616.040859,863.815948 L597.857114,772.186378 L586.500894,719.080445 L570.853254,668.900885 L550.289678,620.344801 C550.289678,620.344801 546.523277,612.671246 544.640076,608.834469 C543.004814,605.502834 539.734291,598.839566 539.734291,598.839566 C537.864493,592.287898 537.538177,590.526828 537.649525,589.448345 C539.963625,582.549639 542.775429,579.377959 544.044531,577.99802 C548.256925,575.875876 550.000596,575.737837 551.660151,575.733224 C553.715751,575.727509 560.549901,579.800711 563.069633,581.734361 C565.664449,583.725631 573.044534,590.99802 573.044534,590.99802 L588.021619,606.560937 L606.044531,627.998018 L627.031448,650.748499 L649.361195,675.210687 L677.722036,704.894674 L693.376673,725.178666 L705.906648,742.226905 C710.423263,746.453344 712.473945,748.372277 712.473945,748.372277 C712.473945,748.372277 716.046267,751.198108 718.048574,752.075304 C719.963067,752.914029 724.224344,753.520041 724.224344,753.520041 C729.945617,753.059989 732.412525,752.407424 734.218834,749.988884 C735.846923,747.808969 736.872401,743.829055 736.872401,743.829055 L735.548644,707.204202 C735.548644,707.204202 734.594621,689.000368 734.122614,679.993928 C733.773427,673.331047 732.008776,655.363477 731.470634,652.947096 C730.334151,647.844032 728.061186,637.637904 728.061186,637.637904 L717.726998,605.320488 C717.726998,605.320488 715.237811,594.957264 713.993217,589.775652 C712.831467,584.938942 710.507966,575.265523 710.507966,575.265523 C710.507966,575.265523 709.214188,569.235336 709.044528,565.99802 C708.888029,563.011851 709.529489,556.595068 709.529489,556.595068 C710.570971,553.954887 710.934891,551.676871 711.908929,550.005127 C714.360657,545.797222 717.000199,544.548415 717.000199,544.548415 C719.063277,543.341881 721.305527,542.880764 723.360272,542.795265 C727.285753,542.631922 733.044523,546.998021 733.044523,546.998021 C733.044523,546.998021 737.694522,550.84029 740.019521,552.761425 C741.771502,554.209077 751.659324,564.770816 754.851254,568.604032 C759.151717,573.768497 767.752643,584.097425 767.752643,584.097425 L793.291479,619.739421 C793.291479,619.739421 799.066607,629.525926 801.954171,634.419179 C804.067456,638.000342 812.081441,654.571437 815.629799,663.586883 C818.581408,671.086148 821.367606,678.313262 821.670896,679.626485 C822.650383,683.867601 827.066796,697.131292 828.295515,699.522021 C829.796032,702.44159 832.797067,708.280728 832.797067,708.280728 C839.044524,711.998014 841.845246,710.773669 842.028083,710.684442 C847.616813,707.365072 851.047916,705.100135 854.387614,702.868852 C860.335616,698.894937 868.04047,694.920504 868.04047,694.920504 C868.04047,694.920504 879.091911,689.651157 885.641023,686.962849 C892.108854,684.307907 905.044516,678.998021 905.044516,678.998021 L949.002301,666.192167 L989.427441,658.407725 L1019.95322,652.635917 C1019.95322,652.635917 1030.16676,651.148836 1033.04451,650.99802 C1037.41844,650.849677 1040.18196,650.853391 1043.04451,651.998018 C1046.32276,653.308874 1051.04451,656.998025 1051.04451,656.998025 L1058.49403,665.538088 C1063.67481,670.78746 1067.32241,672.737688 1067.32241,672.737688 C1067.32241,672.737688 1073.79751,675.068026 1077.03213,675.760958 C1080.42115,676.486965 1087.19332,676.994507 1087.19332,676.994507 C1087.19332,676.994507 1095.55314,677.233404 1100.04455,676.998019 C1103.93388,676.794188 1112.33555,675.676859 1112.33555,675.676859 C1112.33555,675.676859 1122.82092,674.561381 1128.0636,674.003643 C1133.72737,673.401106 1145.04452,670.998022 1145.04452,670.998022 C1145.04452,670.998022 1154.92865,669.329576 1159.8655,667.896348 C1164.82984,666.455144 1174.7585,663.572735 1174.7585,663.572735 L1229.04349,640.260916 L1259.14549,627.33535 L1287.76424,616.120959 L1305.63685,613.415898 L1330.80309,609.58168 L1353.84633,604.841896 L1382.13947,595.85041 C1382.13947,595.85041 1387.63746,593.737633 1390.38646,592.681244 C1391.95775,592.077426 1394.27157,591.188266 1396.27524,590.418289 C1398.5116,589.558898 1401.52504,588.584862 1402.99894,588.347955 C1410.03287,588.092219 1413.33534,588.492661 1414.73336,588.877626 C1421.23761,591.587063 1421.53832,591.742712 1422.04454,591.998018 C1427.16471,596.242507 1428.53184,598.130116 1429.04451,598.998019 C1430.46274,601.398908 1432.43043,606.79187 1432.43043,606.79187 L1436.68592,623.524515 L1437.58012,640.586888 L1435.92518,662.908879 L1433.73817,674.678625 C1433.73817,674.678625 1432.13458,680.731095 1431.33279,683.75733 C1430.71065,686.105497 1429.95737,688.03627 1429.04448,690.99802 C1428.12287,693.98806 1427.48585,697.974896 1427.48585,697.974896 C1428.11649,706.579473 1428.20535,707.652954 1428.42516,711.505701 C1428.79982,718.072597 1429.12541,724.848609 1428.97048,726.303357 C1428.66182,729.201577 1427.15607,739.04673 1426.07736,743.369386 C1425.28885,746.529128 1410.64246,785.019083 1410.64246,785.019083 C1410.64246,785.019083 1395.01769,816.092435 1390.67346,823.437906 C1386.81067,829.969341 1368.04456,855.998012 1368.04456,855.998012 L1340.61455,884.616239 L1314.51404,906.453299 L1277.0802,937.405192 L1248.97935,963.607525 L1223.2748,987.538928 L1214.60174,996.844754 L1207.14693,1006.25568 L1200.22209,1015.63095 L1193.80397,1026.9824 L1187.54277,1039.327 L1180.14332,1059.74224 C1180.14332,1059.74224 1178.92937,1068.97372 1178.3224,1073.58945 C1177.73601,1078.04861 1177.87586,1094.59169 1178.53216,1098.40407 C1179.36962,1103.26873 1181.04453,1112.99804 1181.04453,1112.99804 C1181.04453,1112.99804 1184.35173,1122.54319 1186.00533,1127.31577 C1187.84687,1132.63077 1191.52995,1143.26077 1191.52995,1143.26077 L1201.45792,1173.02874 L1214.06275,1210.17319 L1223.72654,1241.71065 L1227.85015,1262.02668 L1244.97062,1365.68582 L1251.91063,1416.83887 L1256.53736,1457.48553 L1260.51171,1504.14512 L1294.8617,1915.49982 L1294.8617,1915.49982" id="Oval-1" sketch:type="MSShapeGroup"></path>
        </g>
    </g>
</svg>