<?xml version="1.0" encoding="UTF-8" standalone="no"?>
<svg width="2220px" height="333px" viewBox="0 0 2220 333" version="1.1" xmlns="http://www.w3.org/2000/svg" xmlns:xlink="http://www.w3.org/1999/xlink" xmlns:sketch="http://www.bohemiancoding.com/sketch/ns">
    <!-- Generator: Sketch 3.3.2 (12043) - http://www.bohemiancoding.com/sketch -->
    <title>Group</title>
    <desc>Created with Sketch.</desc>
    <defs></defs>
    <g id="Page-1" stroke="none" stroke-width="1" fill="none" fill-rule="evenodd" sketch:type="MSPage">
        <g id="Logo-With-Title-&amp;-Subtitle-Copy" sketch:type="MSArtboardGroup" transform="translate(-3477.000000, -3351.000000)">
            <g id="Rectangle-7-Copy-+-TheOverAnalyzed-+-Oval-5-+-Path" sketch:type="MSLayerGroup" transform="translate(3477.000000, 3351.000000)">
                <g id="Group" sketch:type="MSShapeGroup">
                    <rect id="Rectangle-7-Copy" fill="#3F70A2" x="0" y="0" width="2220" height="333" rx="8"></rect>
                    <ellipse id="Oval-5" fill="#FFFFFF" cx="611.423981" cy="154.227584" rx="107.126448" ry="106.656155"></ellipse>
                    <path d="M205.558533,60.7637511 C181.599632,61.4887949 157.398722,61.9721574 128.841647,61.9721574 C100.526582,61.9721574 77.0516991,61.4887949 53.5768161,60.7637511 C53.5768161,74.2979016 53.334807,89.5238209 52.6087796,101.849565 C69.0653987,101.607884 84.7959904,101.366203 103.672701,101.366203 C104.156719,113.933628 104.398728,128.917866 104.398728,137.860073 L104.398728,173.87058 C104.398728,189.579862 103.91471,220.515063 102.704664,232.115764 L154.252603,232.115764 C153.526576,225.348688 153.284567,206.49755 153.284567,197.313662 L153.284567,116.592122 C153.284567,112.966903 153.284567,106.68319 153.526576,101.366203 C172.403286,101.366203 186.923832,101.607884 203.62246,101.849565 C203.62246,85.6569207 204.348488,73.8145391 205.558533,60.7637511 L205.558533,60.7637511 Z M348.343904,232.115764 C347.859886,225.832051 347.375868,215.681438 347.375868,207.222594 L347.375868,152.119267 C347.375868,126.017691 336.243449,110.308409 312.768566,110.308409 C296.553956,110.308409 278.887292,120.459022 269.206927,137.618391 L269.206927,91.4572709 C269.206927,89.5238209 269.448936,61.7304761 270.174964,55.4467634 C262.914691,56.8968509 230.243462,60.2803886 221.773143,60.2803886 C222.741179,70.6726827 223.225198,84.931877 223.225198,98.94939 L223.225198,191.271631 C223.225198,205.530825 222.741179,221.723469 221.773143,232.115764 L270.174964,232.115764 C269.448936,225.832051 269.206927,215.923119 269.206927,207.464275 L269.206927,165.411736 C270.174964,153.811036 277.435237,145.11051 288.809665,145.11051 C298.732038,145.11051 301.394138,151.635904 301.394138,165.653417 L301.394138,191.02995 C301.394138,205.047463 301.152129,221.723469 299.942084,232.115764 L348.343904,232.115764 Z M486.773112,168.795274 C486.773112,136.409985 469.590465,110.308409 431.353027,110.308409 C392.873579,110.308409 365.526551,136.651666 365.526551,175.078986 C365.526551,208.914363 387.791388,235.982664 432.079054,235.982664 C451.197773,235.982664 467.412383,230.907357 482.174939,222.206832 L482.900966,191.02995 C470.558502,197.555344 456.521974,203.355694 437.403254,203.355694 C419.73659,203.355694 410.298235,195.138531 409.330198,180.395974 L477.818775,178.945887 L486.773112,168.795274 Z M409.572207,161.786517 C410.540244,149.219092 418.284535,140.035204 429.900972,140.035204 C440.791382,140.035204 446.115582,147.769004 447.083619,160.819792 L409.572207,161.786517 Z M611.120152,198.76375 C588.129287,198.76375 571.430659,178.945887 571.430659,146.560598 C571.430659,118.767253 587.40326,95.8075336 611.846179,95.8075336 C634.837044,95.8075336 651.293663,115.625397 651.293663,148.010685 C651.293663,175.80403 635.563071,198.76375 611.120152,198.76375 L611.120152,198.76375 Z M609.184079,236.466026 C662.426082,236.466026 698.485438,196.8303 698.485438,142.935379 C698.485438,95.5658523 664.846173,58.1052572 613.782252,58.1052572 C560.29824,58.1052572 524.480893,97.7409837 524.480893,151.635904 C524.480893,198.76375 558.120158,236.466026 609.184079,236.466026 L609.184079,236.466026 Z M780.480886,233.565851 L816.540242,232.357445 L864.700054,113.208584 C851.147544,114.175309 836.869007,114.175309 820.170379,114.175309 C817.508278,122.634153 811.458051,140.276885 808.311932,151.152542 L799.599605,179.912612 L776.124722,112.725222 C770.800521,113.208584 735.709201,115.142034 729.658974,115.142034 C735.225183,125.77601 744.421529,147.769004 750.471757,162.028199 L764.024266,193.446762 C770.316503,207.947638 776.124722,222.206832 780.480886,233.565851 L780.480886,233.565851 Z M991.028806,168.795274 C991.028806,136.409985 973.846159,110.308409 935.608721,110.308409 C897.129273,110.308409 869.782245,136.651666 869.782245,175.078986 C869.782245,208.914363 892.047082,235.982664 936.334748,235.982664 C955.453467,235.982664 971.668077,230.907357 986.430633,222.206832 L987.15666,191.02995 C974.814196,197.555344 960.777668,203.355694 941.658949,203.355694 C923.992284,203.355694 914.553929,195.138531 913.585892,180.395974 L982.074469,178.945887 L991.028806,168.795274 Z M913.827902,161.786517 C914.795938,149.219092 922.540229,140.035204 934.156666,140.035204 C945.047076,140.035204 950.371276,147.769004 951.339313,160.819792 L913.827902,161.786517 Z M1097.2708,110.308409 C1075.73199,112.000178 1061.45345,123.84256 1054.6772,141.24361 L1052.74113,111.275134 C1045.48085,112.241859 1015.47173,116.108759 1007.24342,116.108759 C1008.21145,126.501053 1008.93748,139.551841 1008.93748,153.569354 L1008.93748,191.02995 C1008.93748,205.047463 1008.69547,221.723469 1007.48542,232.115764 L1055.88725,232.115764 C1055.16122,225.832051 1054.91921,215.681438 1054.91921,207.222594 L1054.91921,177.495799 C1054.91921,155.019442 1074.03793,150.185817 1094.36669,152.360948 L1097.2708,110.308409 Z M1099.20687,232.115764 L1149.54477,232.115764 C1150.99682,228.732226 1158.01509,209.639406 1161.16121,201.663925 L1220.45344,201.663925 L1233.52193,234.049214 L1285.06987,232.115764 C1278.29361,217.131526 1269.09727,197.555344 1262.80503,182.571106 L1209.80504,59.7970261 L1170.84157,62.2138386 C1166.2434,75.7479891 1160.67719,88.3154146 1152.20687,108.374959 L1099.20687,232.115764 Z M1190.44431,119.250616 L1210.04704,171.695449 L1171.08358,171.695449 L1190.44431,119.250616 Z M1423.25706,232.115764 C1422.77305,225.832051 1422.28903,215.681438 1422.28903,207.222594 L1422.28903,152.119267 C1422.28903,126.017691 1411.15661,110.308409 1387.68173,110.308409 C1371.22511,110.308409 1353.55844,120.459022 1343.87808,137.618391 L1342.18401,111.516815 C1334.92374,112.241859 1305.15662,115.867078 1296.6863,115.867078 C1297.65434,126.259372 1298.13836,140.760248 1298.13836,154.777761 L1298.13836,191.02995 C1298.13836,205.047463 1297.65434,221.723469 1296.6863,232.115764 L1345.08812,232.115764 C1344.3621,225.832051 1344.12009,215.681438 1344.12009,207.222594 L1344.12009,165.411736 C1344.12009,155.261123 1352.3484,145.11051 1363.72283,145.11051 C1373.6452,145.11051 1376.3073,151.635904 1376.3073,165.653417 L1376.3073,191.02995 C1376.3073,205.047463 1376.06529,221.723469 1374.85524,232.115764 L1423.25706,232.115764 Z M1474.32099,235.015939 C1488.84153,235.015939 1503.36208,227.765501 1510.13833,215.923119 C1514.01048,230.182313 1524.65888,235.015939 1538.93742,235.015939 C1547.64974,235.015939 1553.94198,233.565851 1561.68627,230.665676 L1563.38034,205.047463 C1561.44426,205.530825 1559.26618,206.255869 1557.57212,206.255869 C1552.73194,206.255869 1550.31184,204.5641 1550.55385,197.797025 L1551.52189,159.128023 C1552.00591,125.534328 1536.51733,110.308409 1499.97395,110.308409 C1480.37121,110.308409 1460.28446,116.592122 1447.21597,124.325922 L1452.29816,155.744486 C1461.4945,150.185817 1476.25706,145.11051 1490.05158,145.11051 C1503.60409,145.11051 1508.20226,150.669179 1507.96025,160.819792 L1507.71824,163.961649 C1504.33011,163.719967 1501.184,163.478286 1498.76391,163.478286 C1458.59039,163.478286 1438.74565,179.429249 1438.74565,203.114012 C1438.74565,223.173557 1452.54017,235.015939 1474.32099,235.015939 L1474.32099,235.015939 Z M1492.71368,209.639406 C1485.2114,209.639406 1480.61322,204.322419 1480.61322,196.346937 C1480.61322,187.888093 1486.42144,181.362699 1500.94199,181.362699 C1503.36208,181.362699 1505.54016,181.362699 1507.47623,181.60438 L1506.99221,192.721718 C1506.75021,204.322419 1500.94199,209.639406 1492.71368,209.639406 L1492.71368,209.639406 Z M1626.06069,232.115764 C1625.33467,225.832051 1624.85065,215.923119 1625.09266,207.464275 L1625.09266,91.4572709 C1625.09266,89.5238209 1625.33467,61.7304761 1626.06069,55.4467634 C1618.80042,56.8968509 1586.12919,60.2803886 1577.41686,60.2803886 C1578.62691,70.6726827 1579.11093,84.931877 1579.11093,98.94939 L1579.11093,191.271631 C1579.11093,205.530825 1578.62691,221.723469 1577.41686,232.115764 L1626.06069,232.115764 Z M1657.03786,285.043959 C1670.10635,283.593872 1688.25703,282.868828 1703.98762,282.868828 C1708.10178,270.784765 1719.47621,240.816289 1723.10634,231.632401 L1770.78214,113.208584 C1757.22963,114.175309 1742.95109,114.175309 1726.25246,114.175309 L1714.39402,150.910861 L1705.9237,179.429249 L1682.93283,112.725222 C1677.85064,113.208584 1642.51731,115.142034 1636.22508,115.142034 C1641.79129,125.77601 1651.22964,147.769004 1657.52188,162.028199 L1671.07439,193.446762 C1676.6406,206.739231 1679.06069,212.539582 1683.17484,223.173557 L1657.03786,285.043959 Z M1887.43053,112.966903 C1872.42596,113.691947 1858.14742,114.175309 1833.94651,114.175309 C1808.05154,114.175309 1800.06524,113.691947 1780.4625,112.966903 C1780.4625,125.534328 1780.22049,138.101754 1779.49447,149.219092 C1790.86889,148.977411 1802.72734,148.735729 1830.31638,148.735729 L1774.89629,210.847813 L1777.55839,233.082489 C1792.80497,232.115764 1811.68168,231.874082 1833.94651,231.874082 C1853.30724,231.874082 1873.87802,232.115764 1886.7045,233.082489 C1886.7045,218.581613 1887.67253,208.672681 1888.64057,196.588619 C1879.44422,197.071981 1860.56751,197.313662 1834.43053,197.313662 L1889.85062,135.201579 L1887.43053,112.966903 Z M2023.19763,168.795274 C2023.19763,136.409985 2006.01499,110.308409 1967.77755,110.308409 C1929.2981,110.308409 1901.95107,136.651666 1901.95107,175.078986 C1901.95107,208.914363 1924.21591,235.982664 1968.50358,235.982664 C1987.62229,235.982664 2003.8369,230.907357 2018.59946,222.206832 L2019.32549,191.02995 C2006.98302,197.555344 1992.94649,203.355694 1973.82778,203.355694 C1956.16111,203.355694 1946.72276,195.138531 1945.75472,180.395974 L2014.2433,178.945887 L2023.19763,168.795274 Z M1945.99673,161.786517 C1946.96476,149.219092 1954.70906,140.035204 1966.32549,140.035204 C1977.2159,140.035204 1982.5401,147.769004 1983.50814,160.819792 L1945.99673,161.786517 Z M2091.92822,110.308409 C2058.53096,110.308409 2034.57206,139.068479 2034.57206,177.73748 C2034.57206,207.947638 2052.96475,236.466026 2085.87799,236.466026 C2101.12456,236.466026 2112.49899,228.490545 2118.54922,220.031701 L2120.24328,232.115764 L2164.53095,232.115764 C2163.3209,220.998426 2162.83689,206.014188 2162.83689,191.996675 L2162.83689,81.7900206 C2162.83689,73.5728578 2163.07889,61.7304761 2163.80492,55.4467634 C2156.54465,56.8968509 2124.35744,59.7970261 2115.64511,60.5220698 C2116.61315,70.914364 2116.61315,84.4485144 2116.61315,98.4660275 L2116.61315,117.317166 C2110.0789,112.966903 2102.81863,110.308409 2091.92822,110.308409 L2091.92822,110.308409 Z M2101.36657,141.726973 C2108.38484,141.726973 2112.49899,143.660423 2116.61315,146.802279 L2116.61315,196.8303 C2113.95105,201.422244 2108.62685,205.047463 2101.60858,205.047463 C2089.02411,205.047463 2080.06977,194.655168 2080.06977,173.628899 C2080.06977,156.227848 2087.57205,141.726973 2101.36657,141.726973 L2101.36657,141.726973 Z" id="TheOverAnalyzed" fill="#FFFFFF"></path>
                    <path d="M576.526338,168.932205 C576.609022,168.279402 576.642988,166.971393 576.642988,166.971393 C576.642988,166.971393 576.591127,165.616371 576.535151,164.913752 C576.484869,164.282609 576.427315,162.856112 576.427315,162.856112 L575.508596,157.365952 L573.99881,151.587199 L571.722482,141.472795 L569.744155,131.536315 L568.508536,125.777429 L566.805412,120.336007 L564.566792,115.070768 C564.566792,115.070768 564.156738,114.238689 563.951711,113.82265 C563.773678,113.461386 563.417611,112.738857 563.417611,112.738857 C563.417611,112.738857 563.32763,112.482338 563.260413,112.213549 C563.214112,112.028397 563.178613,111.837422 563.190768,111.720461 C563.206535,111.568745 563.241941,111.315819 563.334724,111.157275 C563.442998,110.972261 563.560772,110.803966 563.560772,110.803966 C563.560772,110.803966 563.749346,110.628232 563.887614,110.47855 C564.002553,110.354123 564.117536,110.343954 564.216579,110.302578 C564.346491,110.248305 564.536419,110.233292 564.717182,110.23275 C564.941083,110.232079 565.305436,110.404245 565.305436,110.404245 C565.305436,110.404245 565.685373,110.673634 565.95978,110.883269 C566.242363,111.099151 567.046038,111.887634 567.046038,111.887634 L568.676989,113.575009 L570.639552,115.899341 L572.924928,118.366034 L575.356526,121.018322 L578.444914,124.236748 L580.149548,126.436091 L581.513916,128.284605 C581.513916,128.284605 581.76738,128.520742 581.894112,128.63881 C582.005771,128.742836 582.229088,128.950887 582.229088,128.950887 C582.229088,128.950887 582.618123,129.25725 582.836198,129.352329 C583.044708,129.443238 583.508841,129.508852 583.508841,129.508852 C583.508841,129.508852 583.86363,129.521148 584.035406,129.481256 C584.132027,129.458817 584.400745,129.387987 584.597553,129.125659 C584.774943,128.889214 584.88674,128.457579 584.88674,128.457579 L584.743468,124.485763 C584.743468,124.485763 584.640009,122.511639 584.588822,121.534931 C584.550954,120.812372 584.359193,118.86389 584.300638,118.601855 C584.176977,118.048472 583.929655,116.941707 583.929655,116.941707 L582.804838,113.437244 C582.804838,113.437244 582.533969,112.313448 582.398535,111.75155 C582.272115,111.227053 582.019275,110.178059 582.019275,110.178059 C582.019275,110.178059 581.878505,109.524137 581.860106,109.173065 C581.843134,108.849228 581.913164,108.153333 581.913164,108.153333 C582.026671,107.866987 582.066367,107.619935 582.172503,107.438615 C582.439656,106.98222 582.727193,106.846725 582.727193,106.846725 C582.951938,106.715828 583.196181,106.665766 583.419991,106.656442 C583.847567,106.63863 584.474717,107.111976 584.474717,107.111976 C584.474717,107.111976 584.98111,107.528541 585.234307,107.736824 C585.4251,107.893774 586.501842,109.038913 586.849418,109.454534 C587.317706,110.014496 588.254281,111.134421 588.254281,111.134421 L591.035141,114.999043 C591.035141,114.999043 591.663937,116.060214 591.978335,116.5908 C592.20843,116.979113 593.080918,118.775995 593.467188,119.753603 C593.788497,120.5668 594.091796,121.350488 594.124798,121.492895 C594.23138,121.952806 594.712095,123.391101 594.84587,123.650337 C595.009237,123.966918 595.335971,124.600079 595.335971,124.600079 C595.335971,124.600079 595.566259,124.832816 595.689625,124.89468 C596.016366,125.00305 596.321458,124.870204 596.341375,124.860523 C596.465566,124.80016 596.581821,124.733292 596.669977,124.67756 C596.950196,124.500408 597.323976,124.254697 597.6878,124.012638 C598.33577,123.581531 599.1751,123.150324 599.1751,123.150324 C599.1751,123.150324 600.378981,122.578604 601.092393,122.286902 C601.796951,121.99882 603.206067,121.422657 603.206067,121.422657 L607.994373,120.032804 L612.39777,119.187596 L615.722856,118.560899 C615.722856,118.560899 616.835375,118.399374 617.14883,118.382947 C617.282444,118.375944 617.439684,118.337642 617.583337,118.360175 C617.625254,118.36675 617.926262,118.367084 618.238029,118.491144 C618.595072,118.63322 619.109283,119.033178 619.109283,119.033178 L619.920489,119.959135 C619.920489,119.959135 620.164185,120.268099 620.309864,120.386371 C620.484661,120.528283 620.881918,120.739688 620.881918,120.739688 C620.881918,120.739688 621.587143,120.992244 621.939448,121.067309 C622.308569,121.145958 623.046198,121.20083 623.046198,121.20083 C623.046198,121.20083 623.956763,121.226528 624.445984,121.20089 C624.869625,121.178687 625.784783,121.057307 625.784783,121.057307 C625.784783,121.057307 626.926901,120.936075 627.497961,120.875459 C628.114888,120.809974 629.347639,120.549084 629.347639,120.549084 C629.347639,120.549084 630.424282,120.3679 630.962053,120.212347 C631.502815,120.055929 632.584341,119.743093 632.584341,119.743093 L638.497774,117.213644 L641.776879,115.811155 L644.894381,114.594275 L646.841176,114.300473 L649.582438,113.884035 L652.092482,113.369445 L655.174463,112.39364 C655.174463,112.39364 655.773369,112.164378 656.072823,112.049748 C656.243987,111.984226 656.496036,111.887742 656.7143,111.80419 C656.957911,111.710936 657.286166,111.60523 657.446713,111.579501 C657.829315,111.53881 657.918433,111.540604 658.015177,111.544214 C658.212872,111.551591 658.572575,111.594936 658.72484,111.636649 C658.849922,111.670915 658.989919,111.714179 659.084925,111.758098 C659.433232,111.930316 659.465981,111.947188 659.521114,111.974863 C659.629382,112.029209 659.778932,112.113224 659.847834,112.191681 C660.078709,112.435036 660.227572,112.639707 660.283393,112.733816 C660.437809,112.994149 660.652,113.578949 660.652,113.578949 L661.115099,115.393445 L661.212072,117.243783 L661.031254,119.664573 L660.792745,120.941019 C660.792745,120.941019 660.617928,121.59743 660.530519,121.925636 C660.462695,122.180303 660.380598,122.389708 660.28109,122.710923 C660.180631,123.035206 660.111146,123.467582 660.111146,123.467582 C660.111146,123.467582 660.118318,123.900957 660.14545,124.12214 C660.179621,124.400705 660.189274,124.517118 660.21312,124.934931 C660.253764,125.64708 660.289059,126.381909 660.272147,126.539676 C660.238454,126.853986 660.074198,127.9217 659.956595,128.390505 C659.87063,128.733188 658.274348,132.907668 658.274348,132.907668 C658.274348,132.907668 656.571685,136.277864 656.098317,137.074566 C655.677409,137.782975 653.632709,140.606171 653.632709,140.606171 L650.644253,143.710412 L647.800778,146.079224 L643.72262,149.436794 L640.661154,152.279056 L637.860756,154.874982 L636.915833,155.884386 L636.103601,156.905158 L635.349098,157.922048 L634.649737,159.153238 L633.967444,160.492127 L633.160968,162.70628 C633.160968,162.70628 633.028511,163.707434 632.962282,164.208011 C632.8983,164.691607 632.913119,166.485648 632.98451,166.899072 C633.075606,167.426608 633.257798,168.481679 633.257798,168.481679 C633.257798,168.481679 633.617788,169.516738 633.797783,170.034267 C633.998235,170.610616 634.399139,171.763313 634.399139,171.763313 L635.479773,174.991307 L636.851794,179.01919 L637.903608,182.439085 L638.352253,184.642191 L640.214465,195.883267 L640.969109,201.430478 L641.472048,205.838364 L641.903778,210.898348 C641.903778,210.898348 644.587011,248.173438 645.011072,256.265004 C645.030189,256.629778 631.57156,259.807283 621.087314,260.926948 C610.603069,262.046612 607.528178,261.625063 596.054041,259.962724 C586.128246,258.524704 579.752095,257.338068 568.140955,252.230982 C556.529815,247.123897 550.042288,243.265543 549.975319,242.923332 C549.815887,242.108629 553.924108,234.859154 556.017436,230.964765 C557.462178,228.276995 558.741595,226.192476 558.741595,226.192476 L562.337383,220.335529 L566.151066,214.261626 C566.151066,214.261626 568.484163,210.202506 569.611087,208.463672 C570.875702,206.512382 573.009222,202.346394 573.009222,202.346394 C573.009222,202.346394 574.237236,199.561809 574.653388,198.037814 C575.089254,196.44162 575.515154,192.658763 575.515154,192.658763 L576.010957,185.682741 L576.135904,178.508967 L576.452587,171.217413 C576.452587,171.217413 576.428982,169.700851 576.526338,168.932205 Z" id="Path" fill="#3F70A2"></path>
                </g>
            </g>
        </g>
    </g>
</svg>