<?xml version="1.0" encoding="UTF-8" standalone="no"?>
<svg width="616px" height="85px" viewBox="0 0 616 85" version="1.1" xmlns="http://www.w3.org/2000/svg" xmlns:xlink="http://www.w3.org/1999/xlink" xmlns:sketch="http://www.bohemiancoding.com/sketch/ns">
    <!-- Generator: Sketch 3.3.3 (12072) - http://www.bohemiancoding.com/sketch -->
    <title>Site Logo with background</title>
    <desc>Created with Sketch.</desc>
    <defs></defs>
    <g id="Page-1" stroke="none" stroke-width="1" fill="none" fill-rule="evenodd" sketch:type="MSPage">
        <g id="Site-Logo-with-background" sketch:type="MSLayerGroup">
            <rect id="Rectangle-3" fill="#3F70A2" sketch:type="MSShapeGroup" x="0" y="0" width="616" height="85"></rect>
            <g id="Site-Logo" transform="translate(9.000000, 10.000000)" fill="#FFFFFF" sketch:type="MSShapeGroup">
                <g id="O" transform="translate(127.789884, 0.009913)">
                    <path d="M12.3695222,53.36155 C12.3641062,53.3607315 12.3586878,53.3599128 12.353267,53.3590936 C4.87794532,48.0278363 0.00367915669,39.2849225 0.00367915669,29.4035629 C0.00367915669,13.1644235 13.1681027,0 29.407242,0 C45.6463814,0 58.8108049,13.1644235 58.8108049,29.4035629 C58.8108049,42.4300781 50.3398507,53.478096 38.6059824,57.3395765 L38.6060059,57.3399201 L38.6052748,57.3398094 C38.6025655,57.3407009 38.5998561,57.341592 38.5971466,57.3424827 M38.6052748,57.3398094 C38.6055106,57.3397318 38.6057465,57.3396542 38.6059824,57.3395765 L37.7643246,45.0519629 L37.6454435,43.6562784 L37.5070484,42.440453 L37.2994584,40.91036 L36.7873499,37.8097015 L36.6640043,37.2020072 L36.3749405,36.2586568 L35.997904,35.1475897 L35.7009379,34.2571683 C35.7009379,34.2571683 35.5907694,33.9392032 35.5356852,33.7802206 C35.4862226,33.637463 35.3872974,33.3519478 35.3872974,33.3519478 C35.3872974,33.3519478 35.3371974,33.060924 35.3121473,32.9154121 C35.2925159,32.8013758 35.2883328,32.3065383 35.3058728,32.1731558 C35.3240287,32.0350896 35.3603404,31.7589571 35.3603404,31.7589571 L35.5816733,31.1482954 L35.7689586,30.7790428 L35.9609379,30.4394974 L36.1680739,30.1590639 L36.3910628,29.8775637 L36.6504919,29.5992073 L37.4193679,28.8833697 L38.2599221,28.099604 L39.3796456,27.173769 L40.1603656,26.5205776 L40.9808535,25.6645475 C40.9808535,25.6645475 41.5421866,24.8859763 41.6577307,24.6906076 C41.7876755,24.4708895 42.2550445,23.5414215 42.2550445,23.5414215 C42.2550445,23.5414215 42.6931483,22.3901076 42.7167342,22.2955932 C42.7490006,22.1662937 42.7940407,21.8718048 42.8032733,21.7851131 C42.8079076,21.7415986 42.7981686,21.5389141 42.7869618,21.3424847 C42.7803869,21.2272411 42.7777287,21.1951311 42.7683271,21.1182946 C42.7608621,21.0572855 42.7588652,20.9377505 42.7588652,20.9377505 C42.7588652,20.9377505 42.7779196,20.818496 42.8054869,20.7290578 C42.8327933,20.6404657 42.8553254,20.5827123 42.8739349,20.5124738 C42.8979182,20.4219529 42.9458848,20.240911 42.9458848,20.240911 L43.0113029,19.8888537 L43.0608054,19.2211569 L43.034058,18.7107862 L42.9067676,18.2102783 C42.9067676,18.2102783 42.8479099,18.0489637 42.8054879,17.9771482 C42.7901526,17.9511874 42.749259,17.8947251 42.6858411,17.8275878 C42.6669145,17.8059431 42.6258402,17.7827604 42.5961044,17.7677637 C42.5809621,17.760127 42.5719674,17.7554712 42.4763053,17.7079475 C42.4502119,17.6958277 42.4117636,17.6838857 42.3774117,17.6744264 C42.3355943,17.6629113 42.2368104,17.6509332 42.1825195,17.6488858 C42.1559516,17.6478839 42.1314781,17.6473835 42.0264111,17.6585828 C41.9823237,17.6656692 41.8921855,17.6948046 41.8252916,17.7205108 C41.7653574,17.7435424 41.6961463,17.770139 41.6491457,17.7882004 C41.5669176,17.8197992 41.4024615,17.8829967 41.4024615,17.8829967 L40.5561553,18.1519506 L39.8668844,18.2937273 L39.1141104,18.4084167 L38.5795038,18.4893306 L37.7234582,18.8247761 L36.8230451,19.2114065 L35.1992693,19.908711 C35.1992693,19.908711 34.9022825,19.9949298 34.7537892,20.0380391 C34.6061175,20.08091 34.310463,20.1308166 34.310463,20.1308166 C34.310463,20.1308166 33.9719438,20.2026978 33.8025286,20.2207209 C33.6457092,20.237404 33.3320703,20.2707703 33.3320703,20.2707703 C33.3320703,20.2707703 33.0807591,20.3041919 32.9644211,20.3102889 C32.8300738,20.3173297 32.5800144,20.3101838 32.5800144,20.3101838 C32.5800144,20.3101838 32.3774447,20.2950022 32.2760722,20.2732858 C32.1793181,20.2525588 31.9856347,20.1828536 31.9856347,20.1828536 C31.9856347,20.1828536 31.8765274,20.1245183 31.828516,20.0853647 C31.7885023,20.0527333 31.761573,20.0001301 31.7215594,19.9674987 L31.4987289,19.7120479 C31.4987289,19.7120479 31.3574918,19.6016978 31.2594324,19.5624874 C31.1738078,19.5282492 31.0911453,19.5281381 31.0796338,19.5263219 C31.0401828,19.5200978 30.997004,19.5306524 30.9603118,19.5325753 C30.8742324,19.5370866 30.5687246,19.5815682 30.5687246,19.5815682 L29.6556355,19.7542149 L28.4464363,19.9870636 L27.1315684,20.3701131 C27.1315684,20.3701131 26.7446361,20.5289427 26.5511699,20.6083575 C26.3552725,20.6887703 26.0247011,20.8463873 26.0247011,20.8463873 C26.0247011,20.8463873 25.7942331,20.9652708 25.6163161,21.0841388 C25.5164188,21.1508811 25.4137875,21.21863 25.3368456,21.2674747 C25.3126398,21.2828412 25.2807183,21.3012775 25.2466171,21.3179192 C25.241148,21.3205882 25.1573726,21.3572109 25.0676368,21.3272992 C25.0337543,21.310228 25.0043808,21.2630904 24.9704983,21.2460192 C24.9704983,21.2460192 24.8807312,21.0713585 24.8358476,20.9840282 C24.7990941,20.9125166 24.6669901,20.5157722 24.6376916,20.3889117 C24.6286196,20.3496305 24.5452787,20.1334527 24.45699,19.9091342 C24.3508513,19.6394636 24.1111365,19.143788 24.0479238,19.0366681 C23.9615508,18.8903008 23.7888048,18.5975662 23.7888048,18.5975662 L23.0248856,17.5314407 C23.0248856,17.5314407 22.7676142,17.2224812 22.6389785,17.0680014 C22.5435013,16.953342 22.2477362,16.6374187 22.1953308,16.5941164 C22.1257853,16.5366513 21.9866942,16.4217211 21.9866942,16.4217211 C21.9866942,16.4217211 21.8144375,16.2911221 21.6970183,16.296008 C21.6355567,16.2985655 21.5684863,16.3123584 21.5067754,16.3484483 C21.5067754,16.3484483 21.4278213,16.3858027 21.3544851,16.5116698 C21.3253496,16.5616751 21.314464,16.6298153 21.2833111,16.7087885 C21.2833111,16.7087885 21.2641237,16.9007277 21.2688049,16.9900502 C21.2738798,17.086885 21.3125794,17.2672603 21.3125794,17.2672603 C21.3125794,17.2672603 21.3820801,17.5566122 21.4168304,17.7012882 C21.4540588,17.8562809 21.5285155,18.1662663 21.5285155,18.1662663 L21.8376323,19.1329468 C21.8376323,19.1329468 21.9056214,19.4382331 21.939616,19.5908762 C21.9557129,19.6631551 22.0084972,20.2006022 22.0189421,20.3999027 C22.0330609,20.6693039 22.0615976,21.2138181 22.0615976,21.2138181 L22.1011939,22.3093429 C22.1011939,22.3093429 22.0705198,22.4283903 22.0218203,22.493596 C21.9677899,22.5659396 21.8939996,22.5854591 21.8674671,22.591642 C21.8202968,22.6026343 21.7700348,22.588228 21.7228645,22.5992202 C21.7228645,22.5992202 21.5954009,22.5810932 21.5381345,22.5560052 C21.4782414,22.5297664 21.3713858,22.44524 21.3713858,22.44524 C21.3713858,22.44524 21.3100457,22.3878408 21.2793757,22.3591411 C21.2445653,22.3265672 21.2097549,22.2939932 21.1749445,22.2614192 L20.8001471,21.7514713 L20.3318846,21.1447353 L19.4835535,20.2568261 L18.8156247,19.5251117 L18.1878628,18.8445979 L17.6487604,18.2033706 L17.2007649,17.7378517 C17.2007649,17.7378517 16.9800114,17.5203196 16.9023951,17.4607566 C16.8270247,17.4029172 16.72267,17.3285897 16.72267,17.3285897 C16.72267,17.3285897 16.6226012,17.2810793 16.561114,17.2812502 C16.5114733,17.2813882 16.4593165,17.2855172 16.4236437,17.3004785 C16.3964473,17.3118848 16.3648717,17.3146823 16.3333151,17.3489949 C16.2953536,17.3902718 16.243579,17.4387311 16.243579,17.4387311 C16.243579,17.4387311 16.2112468,17.4851433 16.1815245,17.5361675 C16.1560546,17.5798916 16.1463476,17.6496521 16.1420272,17.6914978 C16.1386966,17.7237574 16.1484574,17.7764347 16.1611843,17.8275068 C16.1796601,17.901649 16.2043869,17.9724085 16.2043869,17.9724085 C16.2043869,17.9724085 16.302215,18.1717206 16.351129,18.2713767 C16.4074595,18.3861426 16.5201203,18.6156744 16.5201203,18.6156744 L17.1352192,20.0680869 L17.6032723,21.569061 L17.9429603,23.1575688 L18.4868736,25.898398 L19.1126347,28.6883214 L19.5276149,30.2823265 L19.7802593,31.7966937 C19.7802593,31.7966937 19.7961551,32.1901572 19.8100034,32.3642439 C19.8254199,32.5580453 19.8397474,32.9317942 19.8397474,32.9317942 C19.8397474,32.9317942 19.8305025,33.2925702 19.8078374,33.4726225 L19.7877288,34.1029294 L19.7012233,36.1140836 L19.6673646,38.0927633 L19.5316495,40.0168749 C19.5316495,40.0168749 19.4149292,41.0602447 19.2953333,41.5004831 C19.181147,41.9208089 18.8440883,42.6887821 18.8440883,42.6887821 C18.8440883,42.6887821 18.2584486,43.8377198 17.9112858,44.3758495 C17.6019221,44.8553875 15.4346213,48.4874508 15.4346213,48.4874508 L12.3695222,53.36155 L12.3695222,53.36155" id="Oval-5"></path>
                </g>
                <path d="M203.417823,53.1941736 L213.671293,52.8500975 L227.365524,18.9241886 C223.511871,19.1994495 219.451772,19.1994495 214.703521,19.1994495 C213.946554,21.6079826 212.226173,26.6314944 211.331575,29.7281798 L208.854226,37.9171923 L202.179149,18.7865581 C200.665214,18.9241886 190.687005,19.4747104 188.966625,19.4747104 C190.549375,22.5025806 193.164354,28.7647666 194.884734,32.8248652 L198.738387,41.7708453 C200.527583,45.8997591 202.179149,49.9598578 203.417823,53.1941736 L203.417823,53.1941736 Z M263.287074,34.7516917 C263.287074,25.5304507 258.401193,18.0984058 247.528386,18.0984058 C236.586765,18.0984058 228.810643,25.599266 228.810643,36.5408877 C228.810643,46.1750201 235.141645,53.882326 247.734832,53.882326 C253.171235,53.882326 257.781856,52.4372061 261.979585,49.9598578 L262.186031,41.082693 C258.676454,42.9407042 254.68517,44.5922698 249.248767,44.5922698 C244.225255,44.5922698 241.541461,42.2525519 241.2662,38.0548228 L260.740911,37.6419314 L263.287074,34.7516917 Z M241.335015,32.75605 C241.610276,29.177658 243.812364,26.5626792 247.115495,26.5626792 C250.21218,26.5626792 251.726115,28.7647666 252.001376,32.4807891 L241.335015,32.75605 Z M293.496961,18.0984058 C287.372405,18.5801124 283.312306,21.9520587 281.38548,26.9067554 L280.834958,18.3736667 C278.770501,18.6489276 270.237413,19.7499713 267.897695,19.7499713 C268.172956,22.7090263 268.379401,26.4250487 268.379401,30.4163321 L268.379401,41.082693 C268.379401,45.0739764 268.310586,49.8222273 267.96651,52.7812823 L281.729556,52.7812823 C281.52311,50.9920862 281.454295,48.1018465 281.454295,45.6933135 L281.454295,37.22904 C281.454295,30.8292235 286.890698,29.4529189 292.671178,30.072256 L293.496961,18.0984058 Z M294.047483,52.7812823 L308.361051,52.7812823 C308.773942,51.817869 310.769584,46.3814658 311.664182,44.1105631 L328.523913,44.1105631 L332.239936,53.3318041 L346.89758,52.7812823 C344.970754,48.5147379 342.355775,42.9407042 340.566579,38.6741599 L325.496043,3.71602248 L314.416791,4.40417479 C313.109302,8.25782773 311.526551,11.8362197 309.118018,17.5478839 L294.047483,52.7812823 Z M319.990825,20.6445693 L325.564858,35.5774745 L314.485606,35.5774745 L319.990825,20.6445693 Z M386.191077,52.7812823 C386.053446,50.9920862 385.915816,48.1018465 385.915816,45.6933135 L385.915816,30.0034408 C385.915816,22.5713958 382.750315,18.0984058 376.075238,18.0984058 C371.395802,18.0984058 366.37229,20.9886455 363.619681,25.8745269 L363.137975,18.4424819 C361.073518,18.6489276 352.609244,19.6811561 350.200711,19.6811561 C350.475972,22.640211 350.613602,26.7691249 350.613602,30.7604083 L350.613602,41.082693 C350.613602,45.0739764 350.475972,49.8222273 350.200711,52.7812823 L363.963757,52.7812823 C363.757312,50.9920862 363.688496,48.1018465 363.688496,45.6933135 L363.688496,33.7882785 C363.688496,30.8980388 366.028214,28.0077991 369.26253,28.0077991 C372.083955,28.0077991 372.840922,29.8658103 372.840922,33.8570937 L372.840922,41.082693 C372.840922,45.0739764 372.772107,49.8222273 372.428031,52.7812823 L386.191077,52.7812823 Z M400.711091,53.607065 C404.840005,53.607065 408.968918,51.5426081 410.895745,48.1706618 C411.996789,52.2307604 415.024659,53.607065 419.084757,53.607065 C421.562106,53.607065 423.351302,53.1941736 425.553389,52.3683909 L426.035096,45.0739764 C425.484574,45.2116068 424.865237,45.4180525 424.38353,45.4180525 C423.007226,45.4180525 422.319073,44.9363459 422.387889,43.0095194 L422.663149,31.9990825 C422.80078,22.4337653 418.396605,18.0984058 408.005505,18.0984058 C402.431471,18.0984058 396.719807,19.8876018 393.003785,22.0896892 L394.448905,31.0356692 C397.063883,29.4529189 401.261613,28.0077991 405.184081,28.0077991 C409.037734,28.0077991 410.345223,29.5905494 410.276408,32.4807891 L410.207593,33.3753871 C409.244179,33.3065719 408.349581,33.2377566 407.661429,33.2377566 C396.238101,33.2377566 390.595252,37.7795619 390.595252,44.5234545 C390.595252,50.2351187 394.51772,53.607065 400.711091,53.607065 L400.711091,53.607065 Z M405.941048,46.3814658 C403.807776,46.3814658 402.500287,44.8675307 402.500287,42.5966281 C402.500287,40.188095 404.151852,38.3300837 408.280766,38.3300837 C408.968918,38.3300837 409.588256,38.3300837 410.138777,38.398899 L410.001147,41.5643996 C409.932332,44.8675307 408.280766,46.3814658 405.941048,46.3814658 L405.941048,46.3814658 Z M443.858241,52.7812823 C443.651795,50.9920862 443.514164,48.1706618 443.58298,45.7621287 L443.58298,12.7308178 C443.58298,12.1802959 443.651795,4.26654433 443.858241,2.47734832 C441.793784,2.89023971 432.503727,3.85365294 430.026379,3.85365294 C430.370455,6.81270788 430.508086,10.8728065 430.508086,14.8640899 L430.508086,41.1515082 C430.508086,45.2116068 430.370455,49.8222273 430.026379,52.7812823 L443.858241,52.7812823 Z M452.66659,67.8518179 C456.382613,67.4389265 461.543755,67.2324808 466.016745,67.2324808 C467.186604,63.7917192 470.42092,55.2586306 471.453148,52.6436518 L485.009749,18.9241886 C481.156096,19.1994495 477.095997,19.1994495 472.347746,19.1994495 L468.9758,29.6593646 L466.567267,37.7795619 L460.02982,18.7865581 C458.5847,18.9241886 448.537676,19.4747104 446.74848,19.4747104 C448.331231,22.5025806 451.015025,28.7647666 452.804221,32.8248652 L456.657874,41.7708453 C458.240624,45.555683 458.928776,47.2072485 460.098635,50.2351187 L452.66659,67.8518179 Z M518.17869,18.8553733 C513.912146,19.061819 509.852047,19.1994495 502.970524,19.1994495 C495.607294,19.1994495 493.336392,19.061819 487.762358,18.8553733 C487.762358,22.4337653 487.693543,26.0121574 487.487097,29.177658 C490.721413,29.1088428 494.093359,29.0400275 501.938296,29.0400275 L486.179608,46.7255419 L486.936575,53.0565432 C491.271935,52.7812823 496.639523,52.712467 502.970524,52.712467 C508.475743,52.712467 514.325037,52.7812823 517.972245,53.0565432 C517.972245,48.9276293 518.247505,46.1062048 518.522766,42.6654433 C515.907788,42.8030737 510.5402,42.871889 503.108155,42.871889 L518.866843,25.1863746 L518.17869,18.8553733 Z M556.784035,34.7516917 C556.784035,25.5304507 551.898153,18.0984058 541.025347,18.0984058 C530.083725,18.0984058 522.307604,25.599266 522.307604,36.5408877 C522.307604,46.1750201 528.638605,53.882326 541.231793,53.882326 C546.668196,53.882326 551.278816,52.4372061 555.476545,49.9598578 L555.682991,41.082693 C552.173414,42.9407042 548.182131,44.5922698 542.745728,44.5922698 C537.722216,44.5922698 535.038422,42.2525519 534.763161,38.0548228 L554.237871,37.6419314 L556.784035,34.7516917 Z M534.831976,32.75605 C535.107237,29.177658 537.309324,26.5626792 540.612456,26.5626792 C543.709141,26.5626792 545.223076,28.7647666 545.498337,32.4807891 L534.831976,32.75605 Z M576.327561,18.0984058 C566.831059,18.0984058 560.018351,26.2874183 560.018351,37.2978553 C560.018351,45.8997591 565.248308,54.0199564 574.60718,54.0199564 C578.942539,54.0199564 582.176855,51.7490538 583.897236,49.3405207 L584.378943,52.7812823 L596.97213,52.7812823 C596.628054,49.6157816 596.490423,45.3492373 596.490423,41.3579539 L596.490423,9.97820851 C596.490423,7.63849065 596.559238,4.26654433 596.765684,2.47734832 C594.701227,2.89023971 585.548801,3.71602248 583.071453,3.92246817 C583.346714,6.88152311 583.346714,10.7351761 583.346714,14.7264595 L583.346714,20.0940475 C581.488703,18.8553733 579.424246,18.0984058 576.327561,18.0984058 L576.327561,18.0984058 Z M579.011355,27.0443858 C581.006996,27.0443858 582.176855,27.5949077 583.346714,28.4895057 L583.346714,42.7342585 C582.589747,44.0417479 581.075811,45.0739764 579.08017,45.0739764 C575.501778,45.0739764 572.955614,42.1149214 572.955614,36.1279963 C572.955614,31.1732997 575.088886,27.0443858 579.011355,27.0443858 L579.011355,27.0443858 Z" id="verAnalyzed"></path>
                <path d="M43.4912261,3.9912834 C36.6785182,4.1977291 29.7969951,4.33535956 21.6767978,4.33535956 C13.6254158,4.33535956 6.95033834,4.1977291 0.275260924,3.9912834 C0.275260924,7.84493635 0.206445693,12.1802959 0,15.6898727 C4.67943572,15.6210575 9.15242574,15.5522422 14.5200138,15.5522422 C14.6576442,19.1306342 14.7264595,23.3971786 14.7264595,25.9433421 L14.7264595,36.1968116 C14.7264595,40.6698016 14.588829,49.4781512 14.2447528,52.7812823 L28.9023971,52.7812823 C28.6959514,50.8544558 28.6271361,45.4868678 28.6271361,42.871889 L28.6271361,19.8876018 C28.6271361,18.8553733 28.6271361,17.0661773 28.6959514,15.5522422 C34.0635394,15.5522422 38.1924533,15.6210575 42.9407042,15.6898727 C42.9407042,11.0792522 43.1471499,7.70730588 43.4912261,3.9912834 L43.4912261,3.9912834 Z M84.0922124,52.7812823 C83.9545819,50.9920862 83.8169515,48.1018465 83.8169515,45.6933135 L83.8169515,30.0034408 C83.8169515,22.5713958 80.6514509,18.0984058 73.9763734,18.0984058 C69.365753,18.0984058 64.3422411,20.9886455 61.5896318,25.8745269 L61.5896318,12.7308178 C61.5896318,12.1802959 61.6584471,4.26654433 61.8648928,2.47734832 C59.8004358,2.89023971 50.5103796,3.85365294 48.1018465,3.85365294 C48.3771075,6.81270788 48.5147379,10.8728065 48.5147379,14.8640899 L48.5147379,41.1515082 C48.5147379,45.2116068 48.3771075,49.8222273 48.1018465,52.7812823 L61.8648928,52.7812823 C61.6584471,50.9920862 61.5896318,48.1706618 61.5896318,45.7621287 L61.5896318,33.7882785 C61.8648928,30.4851474 63.9293497,28.0077991 67.1636656,28.0077991 C69.98509,28.0077991 70.7420576,29.8658103 70.7420576,33.8570937 L70.7420576,41.082693 C70.7420576,45.0739764 70.6732423,49.8222273 70.3291662,52.7812823 L84.0922124,52.7812823 Z M123.454525,34.7516917 C123.454525,25.5304507 118.568643,18.0984058 107.695837,18.0984058 C96.7542149,18.0984058 88.9780938,25.599266 88.9780938,36.5408877 C88.9780938,46.1750201 95.3090951,53.882326 107.902282,53.882326 C113.338686,53.882326 117.949306,52.4372061 122.147035,49.9598578 L122.353481,41.082693 C118.843904,42.9407042 114.852621,44.5922698 109.416217,44.5922698 C104.392706,44.5922698 101.708912,42.2525519 101.433651,38.0548228 L120.908361,37.6419314 L123.454525,34.7516917 Z M101.502466,32.75605 C101.777727,29.177658 103.979814,26.5626792 107.282945,26.5626792 C110.379631,26.5626792 111.893566,28.7647666 112.168827,32.4807891 L101.502466,32.75605 Z" id="The----"></path>
            </g>
        </g>
    </g>
</svg>