<?xml version="1.0" encoding="UTF-8" standalone="no"?>
<svg width="2220px" height="333px" viewBox="0 0 2220 333" version="1.1" xmlns="http://www.w3.org/2000/svg" xmlns:xlink="http://www.w3.org/1999/xlink" xmlns:sketch="http://www.bohemiancoding.com/sketch/ns">
    <!-- Generator: Sketch 3.3.2 (12043) - http://www.bohemiancoding.com/sketch -->
    <title>TheOverAnalyzed + Logo Circle</title>
    <desc>Created with Sketch.</desc>
    <defs></defs>
    <g id="Page-1" stroke="none" stroke-width="1" fill="none" fill-rule="evenodd" sketch:type="MSPage">
        <g id="TheOverAnalyzed-+-Logo-Circle" sketch:type="MSLayerGroup">
            <rect id="TheOverAnalyzed" fill="#3F70A2" sketch:type="MSShapeGroup" x="0" y="0" width="2220" height="333" rx="8"></rect>
            <g id="Logo-Circle" transform="translate(52.000000, 47.000000)" sketch:type="MSShapeGroup">
                <ellipse id="Oval-5" fill="#FFFFFF" cx="559.423981" cy="107.227584" rx="107.126448" ry="106.656155"></ellipse>
                <path d="M153.558533,13.7637511 C129.599632,14.4887949 105.398722,14.9721574 76.8416473,14.9721574 C48.5265822,14.9721574 25.0516991,14.4887949 1.57681606,13.7637511 C1.57681606,27.2979016 1.33480696,42.5238209 0.608779649,54.8495651 C17.0653987,54.6078838 32.7959904,54.3662026 51.6727005,54.3662026 C52.1567187,66.933628 52.3987278,81.9178661 52.3987278,90.8600726 L52.3987278,126.87058 C52.3987278,142.579862 51.9147096,173.515063 50.7046641,185.115764 L102.252603,185.115764 C101.526576,178.348688 101.284567,159.49755 101.284567,150.313662 L101.284567,69.5921219 C101.284567,65.966903 101.284567,59.6831902 101.526576,54.3662026 C120.403286,54.3662026 134.923832,54.6078838 151.62246,54.8495651 C151.62246,38.6569207 152.348488,26.8145391 153.558533,13.7637511 L153.558533,13.7637511 Z M296.343904,185.115764 C295.859886,178.832051 295.375868,168.681438 295.375868,160.222594 L295.375868,105.119267 C295.375868,79.017691 284.243449,63.3084091 260.768566,63.3084091 C244.553956,63.3084091 226.887292,73.459022 217.206927,90.6183914 L217.206927,44.4572709 C217.206927,42.5238209 217.448936,14.7304761 218.174964,8.44676339 C210.914691,9.89685094 178.243462,13.2803886 169.773143,13.2803886 C170.741179,23.6726827 171.225198,37.931877 171.225198,51.94939 L171.225198,144.271631 C171.225198,158.530825 170.741179,174.723469 169.773143,185.115764 L218.174964,185.115764 C217.448936,178.832051 217.206927,168.923119 217.206927,160.464275 L217.206927,118.411736 C218.174964,106.811036 225.435237,98.1105104 236.809665,98.1105104 C246.732038,98.1105104 249.394138,104.635904 249.394138,118.653417 L249.394138,144.02995 C249.394138,158.047463 249.152129,174.723469 247.942084,185.115764 L296.343904,185.115764 Z M434.773112,121.795274 C434.773112,89.4099851 417.590465,63.3084091 379.353027,63.3084091 C340.873579,63.3084091 313.526551,89.6516663 313.526551,128.078986 C313.526551,161.914363 335.791388,188.982664 380.079054,188.982664 C399.197773,188.982664 415.412383,183.907357 430.174939,175.206832 L430.900966,144.02995 C418.558502,150.555344 404.521974,156.355694 385.403254,156.355694 C367.73659,156.355694 358.298235,148.138531 357.330198,133.395974 L425.818775,131.945887 L434.773112,121.795274 Z M357.572207,114.786517 C358.540244,102.219092 366.284535,93.035204 377.900972,93.035204 C388.791382,93.035204 394.115582,100.769004 395.083619,113.819792 L357.572207,114.786517 Z M559.120152,151.76375 C536.129287,151.76375 519.430659,131.945887 519.430659,99.5605979 C519.430659,71.7672532 535.40326,48.8075336 559.846179,48.8075336 C582.837044,48.8075336 599.293663,68.6253968 599.293663,101.010685 C599.293663,128.80403 583.563071,151.76375 559.120152,151.76375 L559.120152,151.76375 Z M557.184079,189.466026 C610.426082,189.466026 646.485438,149.8303 646.485438,95.9353791 C646.485438,48.5658523 612.846173,11.1052572 561.782252,11.1052572 C508.29824,11.1052572 472.480893,50.7409837 472.480893,104.635904 C472.480893,151.76375 506.120158,189.466026 557.184079,189.466026 L557.184079,189.466026 Z M728.480886,186.565851 L764.540242,185.357445 L812.700054,66.2085842 C799.147544,67.1753093 784.869007,67.1753093 768.170379,67.1753093 C765.508278,75.6341533 759.458051,93.2768852 756.311932,104.152542 L747.599605,132.912612 L724.124722,65.7252217 C718.800521,66.2085842 683.709201,68.1420343 677.658974,68.1420343 C683.225183,78.7760097 692.421529,100.769004 698.471757,115.028199 L712.024266,146.446762 C718.316503,160.947638 724.124722,175.206832 728.480886,186.565851 L728.480886,186.565851 Z M939.028806,121.795274 C939.028806,89.4099851 921.846159,63.3084091 883.608721,63.3084091 C845.129273,63.3084091 817.782245,89.6516663 817.782245,128.078986 C817.782245,161.914363 840.047082,188.982664 884.334748,188.982664 C903.453467,188.982664 919.668077,183.907357 934.430633,175.206832 L935.15666,144.02995 C922.814196,150.555344 908.777668,156.355694 889.658949,156.355694 C871.992284,156.355694 862.553929,148.138531 861.585892,133.395974 L930.074469,131.945887 L939.028806,121.795274 Z M861.827902,114.786517 C862.795938,102.219092 870.540229,93.035204 882.156666,93.035204 C893.047076,93.035204 898.371276,100.769004 899.339313,113.819792 L861.827902,114.786517 Z M1045.2708,63.3084091 C1023.73199,65.0001779 1009.45345,76.8425596 1002.6772,94.2436103 L1000.74113,64.2751342 C993.480854,65.2418592 963.471725,69.1087593 955.243416,69.1087593 C956.211452,79.5010535 956.937479,92.5518414 956.937479,106.569354 L956.937479,144.02995 C956.937479,158.047463 956.69547,174.723469 955.485425,185.115764 L1003.88725,185.115764 C1003.16122,178.832051 1002.91921,168.681438 1002.91921,160.222594 L1002.91921,130.495799 C1002.91921,108.019442 1022.03793,103.185817 1042.36669,105.360948 L1045.2708,63.3084091 Z M1047.20687,185.115764 L1097.54477,185.115764 C1098.99682,181.732226 1106.01509,162.639406 1109.16121,154.663925 L1168.45344,154.663925 L1181.52193,187.049214 L1233.06987,185.115764 C1226.29361,170.131526 1217.09727,150.555344 1210.80503,135.571106 L1157.80504,12.7970261 L1118.84157,15.2138386 C1114.2434,28.7479891 1108.67719,41.3154146 1100.20687,61.3749591 L1047.20687,185.115764 Z M1138.44431,72.2506157 L1158.04704,124.695449 L1119.08358,124.695449 L1138.44431,72.2506157 Z M1371.25706,185.115764 C1370.77305,178.832051 1370.28903,168.681438 1370.28903,160.222594 L1370.28903,105.119267 C1370.28903,79.017691 1359.15661,63.3084091 1335.68173,63.3084091 C1319.22511,63.3084091 1301.55844,73.459022 1291.87808,90.6183914 L1290.18401,64.5168154 C1282.92374,65.2418592 1253.15662,68.8670781 1244.6863,68.8670781 C1245.65434,79.2593722 1246.13836,93.7602477 1246.13836,107.777761 L1246.13836,144.02995 C1246.13836,158.047463 1245.65434,174.723469 1244.6863,185.115764 L1293.08812,185.115764 C1292.3621,178.832051 1292.12009,168.681438 1292.12009,160.222594 L1292.12009,118.411736 C1292.12009,108.261123 1300.3484,98.1105104 1311.72283,98.1105104 C1321.6452,98.1105104 1324.3073,104.635904 1324.3073,118.653417 L1324.3073,144.02995 C1324.3073,158.047463 1324.06529,174.723469 1322.85524,185.115764 L1371.25706,185.115764 Z M1422.32099,188.015939 C1436.84153,188.015939 1451.36208,180.765501 1458.13833,168.923119 C1462.01048,183.182313 1472.65888,188.015939 1486.93742,188.015939 C1495.64974,188.015939 1501.94198,186.565851 1509.68627,183.665676 L1511.38034,158.047463 C1509.44426,158.530825 1507.26618,159.255869 1505.57212,159.255869 C1500.73194,159.255869 1498.31184,157.5641 1498.55385,150.797025 L1499.52189,112.128023 C1500.00591,78.5343284 1484.51733,63.3084091 1447.97395,63.3084091 C1428.37121,63.3084091 1408.28446,69.5921219 1395.21597,77.3259221 L1400.29816,108.744486 C1409.4945,103.185817 1424.25706,98.1105104 1438.05158,98.1105104 C1451.60409,98.1105104 1456.20226,103.669179 1455.96025,113.819792 L1455.71824,116.961649 C1452.33011,116.719967 1449.184,116.478286 1446.76391,116.478286 C1406.59039,116.478286 1386.74565,132.429249 1386.74565,156.114012 C1386.74565,176.173557 1400.54017,188.015939 1422.32099,188.015939 L1422.32099,188.015939 Z M1440.71368,162.639406 C1433.2114,162.639406 1428.61322,157.322419 1428.61322,149.346937 C1428.61322,140.888093 1434.42144,134.362699 1448.94199,134.362699 C1451.36208,134.362699 1453.54016,134.362699 1455.47623,134.60438 L1454.99221,145.721718 C1454.75021,157.322419 1448.94199,162.639406 1440.71368,162.639406 L1440.71368,162.639406 Z M1574.06069,185.115764 C1573.33467,178.832051 1572.85065,168.923119 1573.09266,160.464275 L1573.09266,44.4572709 C1573.09266,42.5238209 1573.33467,14.7304761 1574.06069,8.44676339 C1566.80042,9.89685094 1534.12919,13.2803886 1525.41686,13.2803886 C1526.62691,23.6726827 1527.11093,37.931877 1527.11093,51.94939 L1527.11093,144.271631 C1527.11093,158.530825 1526.62691,174.723469 1525.41686,185.115764 L1574.06069,185.115764 Z M1605.03786,238.043959 C1618.10635,236.593872 1636.25703,235.868828 1651.98762,235.868828 C1656.10178,223.784765 1667.47621,193.816289 1671.10634,184.632401 L1718.78214,66.2085842 C1705.22963,67.1753093 1690.95109,67.1753093 1674.25246,67.1753093 L1662.39402,103.910861 L1653.9237,132.429249 L1630.93283,65.7252217 C1625.85064,66.2085842 1590.51731,68.1420343 1584.22508,68.1420343 C1589.79129,78.7760097 1599.22964,100.769004 1605.52188,115.028199 L1619.07439,146.446762 C1624.6406,159.739231 1627.06069,165.539582 1631.17484,176.173557 L1605.03786,238.043959 Z M1835.43053,65.966903 C1820.42596,66.6919468 1806.14742,67.1753093 1781.94651,67.1753093 C1756.05154,67.1753093 1748.06524,66.6919468 1728.4625,65.966903 C1728.4625,78.5343284 1728.22049,91.1017539 1727.49447,102.219092 C1738.86889,101.977411 1750.72734,101.735729 1778.31638,101.735729 L1722.89629,163.847813 L1725.55839,186.082489 C1740.80497,185.115764 1759.68168,184.874082 1781.94651,184.874082 C1801.30724,184.874082 1821.87802,185.115764 1834.7045,186.082489 C1834.7045,171.581613 1835.67253,161.672681 1836.64057,149.588619 C1827.44422,150.071981 1808.56751,150.313662 1782.43053,150.313662 L1837.85062,88.2015788 L1835.43053,65.966903 Z M1971.19763,121.795274 C1971.19763,89.4099851 1954.01499,63.3084091 1915.77755,63.3084091 C1877.2981,63.3084091 1849.95107,89.6516663 1849.95107,128.078986 C1849.95107,161.914363 1872.21591,188.982664 1916.50358,188.982664 C1935.62229,188.982664 1951.8369,183.907357 1966.59946,175.206832 L1967.32549,144.02995 C1954.98302,150.555344 1940.94649,156.355694 1921.82778,156.355694 C1904.16111,156.355694 1894.72276,148.138531 1893.75472,133.395974 L1962.2433,131.945887 L1971.19763,121.795274 Z M1893.99673,114.786517 C1894.96476,102.219092 1902.70906,93.035204 1914.32549,93.035204 C1925.2159,93.035204 1930.5401,100.769004 1931.50814,113.819792 L1893.99673,114.786517 Z M2039.92822,63.3084091 C2006.53096,63.3084091 1982.57206,92.0684789 1982.57206,130.73748 C1982.57206,160.947638 2000.96475,189.466026 2033.87799,189.466026 C2049.12456,189.466026 2060.49899,181.490545 2066.54922,173.031701 L2068.24328,185.115764 L2112.53095,185.115764 C2111.3209,173.998426 2110.83689,159.014188 2110.83689,144.996675 L2110.83689,34.7900206 C2110.83689,26.5728578 2111.07889,14.7304761 2111.80492,8.44676339 C2104.54465,9.89685094 2072.35744,12.7970261 2063.64511,13.5220698 C2064.61315,23.914364 2064.61315,37.4485144 2064.61315,51.4660275 L2064.61315,70.3171656 C2058.0789,65.966903 2050.81863,63.3084091 2039.92822,63.3084091 L2039.92822,63.3084091 Z M2049.36657,94.7269728 C2056.38484,94.7269728 2060.49899,96.6604228 2064.61315,99.8022792 L2064.61315,149.8303 C2061.95105,154.422244 2056.62685,158.047463 2049.60858,158.047463 C2037.02411,158.047463 2028.06977,147.655168 2028.06977,126.628899 C2028.06977,109.227848 2035.57205,94.7269728 2049.36657,94.7269728 L2049.36657,94.7269728 Z" id="TheOverAnalyzed" fill="#FFFFFF"></path>
                <path d="M524.526338,121.932205 C524.609022,121.279402 524.642988,119.971393 524.642988,119.971393 C524.642988,119.971393 524.591127,118.616371 524.535151,117.913752 C524.484869,117.282609 524.427315,115.856112 524.427315,115.856112 L523.508596,110.365952 L521.99881,104.587199 L519.722482,94.4727951 L517.744155,84.5363146 L516.508536,78.7774291 L514.805412,73.3360065 L512.566792,68.0707679 C512.566792,68.0707679 512.156738,67.2386894 511.951711,66.8226501 C511.773678,66.4613859 511.417611,65.7388573 511.417611,65.7388573 C511.417611,65.7388573 511.32763,65.4823378 511.260413,65.2135493 C511.214112,65.0283966 511.178613,64.8374223 511.190768,64.7204614 C511.206535,64.5687453 511.241941,64.3158192 511.334724,64.1572753 C511.442998,63.9722609 511.749346,63.6282321 511.887614,63.4785503 C512.002553,63.3541228 512.117536,63.3439541 512.216579,63.3025776 C512.346491,63.2483053 512.536419,63.2332919 512.717182,63.2327501 C512.941083,63.232079 513.305436,63.4042454 513.305436,63.4042454 C513.305436,63.4042454 513.685373,63.673634 513.95978,63.8832692 C514.242363,64.0991512 515.046038,64.8876342 515.046038,64.8876342 L516.676989,66.5750087 L518.639552,68.8993414 L520.924928,71.3660341 L523.356526,74.0183225 L526.444914,77.2367475 L528.149548,79.4360906 L529.513916,81.2846047 C529.513916,81.2846047 529.76738,81.5207417 529.894112,81.6388102 C530.005771,81.7428357 530.229088,81.9508866 530.229088,81.9508866 C530.229088,81.9508866 530.618123,82.2572497 530.836198,82.3523288 C531.044708,82.443238 531.508841,82.5088516 531.508841,82.5088516 C531.508841,82.5088516 531.86363,82.5211478 532.035406,82.4812559 C532.132027,82.4588174 532.400745,82.3879872 532.597553,82.1256591 C532.774943,81.8892136 532.88674,81.4575789 532.88674,81.4575789 L532.743468,77.4857633 C532.743468,77.4857633 532.640009,75.5116393 532.588822,74.5349314 C532.550954,73.8123718 532.359193,71.8638902 532.300638,71.6018548 C532.176977,71.0484722 531.929655,69.941707 531.929655,69.941707 L530.804838,66.4372443 C530.804838,66.4372443 530.533969,65.3134479 530.398535,64.7515497 C530.272115,64.2270529 530.019275,63.1780595 530.019275,63.1780595 C530.019275,63.1780595 529.878505,62.5241372 529.860106,62.1730649 C529.843134,61.8492282 529.913164,61.1533325 529.913164,61.1533325 C530.026671,60.8669873 530.066367,60.6199346 530.172503,60.438615 C530.439656,59.9822198 530.727193,59.8467247 530.727193,59.8467247 C530.951938,59.7158284 531.196181,59.6657657 531.419991,59.6564422 C531.847567,59.6386301 532.474717,60.1119757 532.474717,60.1119757 C532.474717,60.1119757 532.98111,60.5285414 533.234307,60.7368242 C533.4251,60.8937737 534.501842,62.0389135 534.849418,62.4545338 C535.317706,63.0144961 536.254281,64.1344205 536.254281,64.1344205 L539.035141,67.9990432 C539.035141,67.9990432 539.663937,69.0602142 539.978335,69.5907997 C540.20843,69.9791127 541.080918,71.7759948 541.467188,72.7536026 C541.788497,73.5668002 542.091796,74.3504881 542.124798,74.4928953 C542.23138,74.9528064 542.712095,76.3911011 542.84587,76.6503373 C543.009237,76.9669178 543.335971,77.6000787 543.335971,77.6000787 C543.335971,77.6000787 543.566259,77.8328163 543.689625,77.8946799 C544.016366,78.0030504 544.321458,77.870204 544.341375,77.8605231 C544.465566,77.8001598 544.581821,77.7332919 544.669977,77.6775603 C544.950196,77.5004084 545.323976,77.2546974 545.6878,77.0126384 C546.33577,76.5815313 547.1751,76.1503242 547.1751,76.1503242 C547.1751,76.1503242 548.378981,75.578604 549.092393,75.286902 C549.796951,74.9988202 551.206067,74.4226568 551.206067,74.4226568 L555.994373,73.032804 L560.39777,72.1875959 L563.722856,71.5608987 C563.722856,71.5608987 564.835375,71.3993743 565.14883,71.3829468 C565.282444,71.3759444 565.439684,71.3376423 565.583337,71.3601753 C565.625254,71.3667502 565.926262,71.3670839 566.238029,71.4911436 C566.595072,71.6332198 567.109283,72.0331785 567.109283,72.0331785 L567.920489,72.9591349 C567.920489,72.9591349 568.164185,73.2680988 568.309864,73.3863711 C568.484661,73.5282831 568.881918,73.739688 568.881918,73.739688 C568.881918,73.739688 569.587143,73.9922438 569.939448,74.0673093 C570.308569,74.1459578 571.046198,74.2008298 571.046198,74.2008298 C571.046198,74.2008298 571.956763,74.2265285 572.445984,74.2008895 C572.869625,74.1786874 573.784783,74.0573067 573.784783,74.0573067 C573.784783,74.0573067 574.926901,73.9360747 575.497961,73.8754587 C576.114888,73.809974 577.347639,73.5490843 577.347639,73.5490843 C577.347639,73.5490843 578.424282,73.3678997 578.962053,73.2123472 C579.502815,73.0559291 580.584341,72.743093 580.584341,72.743093 L586.497774,70.2136438 L589.776879,68.811155 L592.894381,67.5942747 L594.841176,67.3004729 L597.582438,66.8840352 L600.092482,66.3694447 L603.174463,65.3936397 C603.174463,65.3936397 603.773369,65.1643783 604.072823,65.0497476 C604.243987,64.9842261 604.496036,64.8877417 604.7143,64.8041901 C604.957911,64.7109361 605.286166,64.6052296 605.446713,64.5795009 C605.829315,64.5388098 605.918433,64.5406035 606.015177,64.5442138 C606.212872,64.5515914 606.572575,64.5949355 606.72484,64.6366488 C606.849922,64.6709153 606.989919,64.7141788 607.084925,64.7580977 C607.433232,64.9303161 607.465981,64.9471882 607.521114,64.9748627 C607.629382,65.0292086 607.778932,65.1132236 607.847834,65.1916811 C608.078709,65.435036 608.227572,65.6397071 608.283393,65.7338156 C608.437809,65.9941489 608.652,66.5789493 608.652,66.5789493 L609.115099,68.3934449 L609.212072,70.2437826 L609.031254,72.6645728 L608.792745,73.9410189 C608.792745,73.9410189 608.617928,74.5974301 608.530519,74.9256357 C608.462695,75.1803025 608.380598,75.3897076 608.28109,75.7109227 C608.180631,76.035206 608.111146,76.4675817 608.111146,76.4675817 C608.111146,76.4675817 608.118318,76.9009568 608.14545,77.1221403 C608.179621,77.4007049 608.189274,77.5171182 608.21312,77.9349308 C608.253764,78.6470805 608.289059,79.3819093 608.272147,79.539676 C608.238454,79.8539863 608.074198,80.9216995 607.956595,81.3905048 C607.87063,81.7331884 606.274348,85.9076675 606.274348,85.9076675 C606.274348,85.9076675 604.571685,89.2778641 604.098317,90.0745656 C603.677409,90.7829755 601.632709,93.6061709 601.632709,93.6061709 L598.644253,96.710412 L595.800778,99.0792239 L591.72262,102.436794 L588.661154,105.279056 L585.860756,107.874982 L584.915833,108.884386 L584.103601,109.905158 L583.349098,110.922048 L582.649737,112.153238 L581.967444,113.492127 L581.160968,115.70628 C581.160968,115.70628 581.028511,116.707434 580.962282,117.208011 C580.8983,117.691607 580.913119,119.485648 580.98451,119.899072 C581.075606,120.426608 581.257798,121.481679 581.257798,121.481679 C581.257798,121.481679 581.617788,122.516738 581.797783,123.034267 C581.998235,123.610616 582.399139,124.763313 582.399139,124.763313 L583.479773,127.991307 L584.851794,132.01919 L585.903608,135.439085 L586.352253,137.642191 L588.214465,148.883267 L588.969109,154.430478 L589.472048,158.838364 L589.903778,163.898348 C589.903778,163.898348 592.587011,201.173438 593.011072,209.265004 C593.030189,209.629778 591.748363,215.651792 581.264117,216.771457 C570.779872,217.891122 555.647141,216.894984 544.173004,215.232645 C534.247208,213.794625 523.853029,214.782755 512.241889,209.67567 C500.630749,204.568585 498.042288,196.265543 497.975319,195.923332 C497.815887,195.108629 501.924108,187.859154 504.017436,183.964765 C505.462178,181.276995 506.741595,179.192476 506.741595,179.192476 L510.337383,173.335529 L514.151066,167.261626 C514.151066,167.261626 516.484163,163.202506 517.611087,161.463672 C518.875702,159.512382 521.009222,155.346394 521.009222,155.346394 C521.009222,155.346394 522.237236,152.561809 522.653388,151.037814 C523.089254,149.44162 523.515154,145.658763 523.515154,145.658763 L524.010957,138.682741 L524.135904,131.508967 L524.452587,124.217413 C524.452587,124.217413 524.428982,122.700851 524.526338,121.932205 Z" id="Path" fill="#3F70A2"></path>
            </g>
        </g>
    </g>
</svg>