<?xml version="1.0" encoding="UTF-8" standalone="no"?>
<svg width="9025px" height="1273px" viewBox="0 0 9025 1273" version="1.1" xmlns="http://www.w3.org/2000/svg" xmlns:xlink="http://www.w3.org/1999/xlink" xmlns:sketch="http://www.bohemiancoding.com/sketch/ns">
    <!-- Generator: Sketch 3.3.3 (12072) - http://www.bohemiancoding.com/sketch -->
    <title>Site Title</title>
    <desc>Created with Sketch.</desc>
    <defs></defs>
    <g id="Page-1" stroke="none" stroke-width="1" fill="none" fill-rule="evenodd" sketch:type="MSPage">
        <g id="TheOverAnalyzed-v3.1" sketch:type="MSArtboardGroup" transform="translate(-2573.000000, -15983.000000)">
            <g id="Site-Title" sketch:type="MSLayerGroup" transform="translate(2573.000000, 15983.000000)">
                <rect id="Rectangle-3" fill="#3F70A2" sketch:type="MSShapeGroup" x="0" y="0" width="9025" height="1272.29513"></rect>
                <g id="O" transform="translate(2030.874862, 135.924695)" fill="#FFFFFF" sketch:type="MSShapeGroup">
                    <path d="M558.20688,825.709732 C726.345566,769.5065 847.530454,610.77419 847.530454,423.73936 C847.530454,189.714574 657.804299,0 423.765227,0 C189.726155,0 0,189.714574 0,423.73936 C0,564.479929 68.6186381,689.194735 174.227583,766.257377 M558.20688,825.709742 L558.20688,825.709732 M174.227583,766.257377 L214.272824,709.10519 L228.498921,685.827569 L243.587205,661.687764 C243.587205,661.687764 252.817453,645.55521 257.276014,638.644511 C262.279339,630.889437 270.719601,614.331911 270.719601,614.331911 C270.719601,614.331911 275.577305,603.264526 277.222963,597.207144 C278.946584,590.862797 280.628761,575.826627 280.628761,575.826627 L282.584693,548.097946 L283.072665,519.582874 L284.319386,490.599808 C284.319386,490.599808 284.224577,484.571575 284.609193,481.516354 C284.935843,478.921592 285.069081,473.72239 285.069081,473.72239 C285.069081,473.72239 284.862593,468.336235 284.640409,465.543332 C284.440826,463.034541 284.211736,457.364274 284.211736,457.364274 L280.570615,435.540485 L274.589903,412.569021 L265.571408,372.362988 L257.732508,332.864458 L252.836912,309.972216 L246.091311,288.341437 L237.226481,267.410488 C237.226481,267.410488 235.602808,264.102667 234.790972,262.448757 C234.086021,261.012598 232.676118,258.140279 232.676118,258.140279 C231.87006,255.316068 231.729387,254.556928 231.777389,254.092029 C232.774983,251.118221 233.987134,249.751013 234.534236,249.156166 C236.350173,248.241379 237.101859,248.181875 237.817283,248.179886 C238.703439,248.177423 241.649599,249.933248 242.73584,250.766781 C243.854449,251.625153 247.035958,254.760044 247.035958,254.760044 L253.492487,261.468711 L261.262053,270.70954 L270.309383,280.516534 L279.935599,291.061388 L292.161783,303.85719 L298.9104,312.60096 L304.311995,319.949902 C306.25908,321.771783 307.143116,322.598972 307.143116,322.598972 C307.143116,322.598972 308.683122,323.817096 309.546304,324.195227 C310.37163,324.556774 312.208641,324.818006 312.208641,324.818006 C314.675046,324.619693 315.738515,324.338393 316.517203,323.295839 C317.219062,322.356149 317.66114,320.640537 317.66114,320.640537 L317.090476,304.852753 C317.090476,304.852753 316.679203,297.005672 316.475723,293.123288 C316.325191,290.251136 315.564461,282.505901 315.332471,281.464277 C314.842541,279.264512 313.862679,274.864982 313.862679,274.864982 L309.407675,260.933994 C309.407675,260.933994 308.334601,256.466745 307.798065,254.23312 C307.297241,252.148172 306.295595,247.978275 306.295595,247.978275 C306.295595,247.978275 305.737855,245.378858 305.664716,243.983356 C305.59725,242.696115 305.873779,239.930049 305.873779,239.930049 C306.322756,238.791953 306.479639,237.809974 306.899541,237.089339 C307.956466,235.275448 309.094356,234.737128 309.094356,234.737128 C309.983736,234.217031 310.950356,234.018258 311.836144,233.981402 C313.528395,233.91099 316.010965,235.793074 316.010965,235.793074 C316.010965,235.793074 318.015551,237.449351 319.017844,238.27749 C319.773112,238.901526 324.035691,243.454348 325.411712,245.106723 C327.265615,247.332956 330.973421,251.785421 330.973421,251.785421 L341.983056,267.149528 C341.983056,267.149528 344.472678,271.368172 345.717489,273.477494 C346.628513,275.021218 350.083292,282.164478 351.612967,286.050744 C352.885388,289.283434 354.086501,292.398808 354.217247,292.964895 C354.639498,294.793103 356.543386,300.510649 357.073079,301.541214 C357.719943,302.799746 359.01367,305.316808 359.01367,305.316808 C361.706911,306.91921 362.914285,306.391434 362.993105,306.352971 C365.402371,304.922099 366.881499,303.945758 368.321222,302.983925 C370.885369,301.270899 374.206884,299.55765 374.206884,299.55765 C374.206884,299.55765 378.971092,297.286206 381.794374,296.127364 C384.582615,294.982904 390.159099,292.693985 390.159099,292.693985 L409.109029,287.173797 L426.536057,283.818177 L439.695534,281.330138 C439.695534,281.330138 444.098525,280.689106 445.339104,280.624094 C447.224682,280.560148 448.416018,280.561749 449.650043,281.055161 C451.063279,281.620228 453.098793,283.210502 453.098793,283.210502 L456.310235,286.891845 C458.543641,289.154679 460.116099,289.995359 460.116099,289.995359 C460.116099,289.995359 462.907473,290.999891 464.301897,291.298592 C465.762881,291.61155 468.682324,291.830335 468.682324,291.830335 C468.682324,291.830335 472.28619,291.933316 474.222408,291.831849 C475.899076,291.743984 479.520984,291.26234 479.520984,291.26234 C479.520984,291.26234 484.04116,290.781494 486.301248,290.541071 C488.742867,290.281337 493.621619,289.245445 493.621619,289.245445 C493.621619,289.245445 497.882604,288.526232 500.010854,287.908414 C502.150946,287.287158 506.431131,286.044645 506.431131,286.044645 L529.833054,275.995678 L542.809844,270.423886 L555.147207,265.589726 L562.851979,264.423663 L573.700989,262.770856 L583.634789,260.727689 L595.831787,256.851751 C595.831787,256.851751 598.201937,255.941002 599.387011,255.485627 C600.064385,255.22534 601.061859,254.842052 601.925632,254.51014 C602.88971,254.139685 604.188786,253.71981 604.824175,253.617687 C607.856459,253.507447 609.280136,253.680065 609.882809,253.846011 C612.686754,255.013961 612.816387,255.081056 613.034618,255.19111 C615.241889,257.020772 615.831249,257.834459 616.052261,258.208583 C616.663649,259.243529 617.511908,261.568259 617.511908,261.568259 L619.346423,268.781159 L619.731907,276.136193 L619.018475,285.758478 L618.075667,290.832033 C618.075667,290.832033 617.384371,293.441057 617.038723,294.745568 C616.770522,295.757787 616.445788,296.59008 616.052246,297.866795 C615.654946,299.155703 615.380333,300.874299 615.380333,300.874299 C615.652195,304.583453 615.690504,305.046195 615.785263,306.706989 C615.946776,309.537765 616.087134,312.458684 616.020344,313.085778 C615.887283,314.335106 615.238163,318.579032 614.773139,320.442389 C614.433219,321.804451 608.119248,338.39622 608.119248,338.39622 C608.119248,338.39622 601.383508,351.790932 599.510738,354.957326 C597.845511,357.772816 589.755556,368.99293 589.755556,368.99293 L577.930652,381.329318 L566.678884,390.742564 L550.541383,404.08492 L538.427282,415.379894 L527.34621,425.695945 L523.607307,429.707384 L520.393583,433.764128 L517.40833,437.805501 L514.641516,442.698744 L511.942353,448.020102 L508.752495,456.820447 C508.752495,456.820447 508.229168,460.799836 507.967505,462.789531 C507.714719,464.711727 507.775005,471.842911 508.057934,473.486306 C508.418956,475.583301 509.141,479.777291 509.141,479.777291 C509.141,479.777291 510.566714,483.891897 511.279571,485.9492 C512.073447,488.240323 513.661199,492.82257 513.661199,492.82257 L517.941087,505.654575 L523.374953,521.666343 L527.540952,535.261116 L529.318613,544.018696 L536.699141,588.702784 L539.690938,610.753201 L541.685493,628.274656 L543.398812,648.388089 L558.20688,825.709735 L558.20688,825.709732" id="Total-Smokey"></path>
                </g>
                <path d="M810.550941,205.885936 C711.605759,208.884275 611.66113,210.883167 493.726467,210.883167 C376.791251,210.883167 279.844961,208.884275 182.898671,205.885936 C182.898671,261.854928 181.899225,324.820044 178.900886,375.791805 C246.863234,374.792359 311.827243,373.792913 389.784053,373.792913 C391.782946,425.76412 392.782392,487.72979 392.782392,524.709302 L392.782392,673.6268 C392.782392,738.590808 390.783499,866.519934 385.786268,914.493355 L598.668328,914.493355 C595.669989,886.508859 594.670543,808.552049 594.670543,770.57309 L594.670543,436.758029 C594.670543,421.766334 594.670543,395.780731 595.669989,373.792913 C673.6268,373.792913 733.593577,374.792359 802.555371,375.791805 C802.555371,308.828904 805.55371,259.856035 810.550941,205.885936 L810.550941,205.885936 Z M1400.22425,914.493355 C1398.22536,888.507752 1396.22647,846.531008 1396.22647,811.550388 L1396.22647,583.676633 C1396.22647,475.736434 1350.25194,410.772425 1253.30565,410.772425 C1186.34275,410.772425 1113.38317,452.749169 1073.40532,523.709856 L1073.40532,332.815615 C1073.40532,324.820044 1074.40476,209.883721 1077.4031,183.898117 C1047.41971,189.894795 912.494463,203.887043 877.513843,203.887043 C881.511628,246.863234 883.51052,305.830565 883.51052,363.79845 L883.51052,745.586932 C883.51052,804.554264 881.511628,871.517165 877.513843,914.493355 L1077.4031,914.493355 C1074.40476,888.507752 1073.40532,847.530454 1073.40532,812.549834 L1073.40532,638.646179 C1077.4031,590.672757 1107.38649,554.692691 1154.36047,554.692691 C1195.33776,554.692691 1206.33167,581.677741 1206.33167,639.645626 L1206.33167,744.587486 C1206.33167,802.555371 1205.33223,871.517165 1200.33499,914.493355 L1400.22425,914.493355 Z M1971.90753,652.638427 C1971.90753,518.712625 1900.94684,410.772425 1743.03433,410.772425 C1584.12237,410.772425 1471.18494,519.712071 1471.18494,678.624031 C1471.18494,818.546512 1563.134,930.484496 1746.03267,930.484496 C1824.98893,930.484496 1891.95183,909.496124 1952.91805,873.516058 L1955.91639,744.587486 C1904.94463,771.572536 1846.97674,795.559247 1768.02049,795.559247 C1695.06091,795.559247 1656.0825,761.578073 1652.08472,700.611849 L1934.92802,694.615172 L1971.90753,652.638427 Z M1653.08416,623.654485 C1657.08195,571.683278 1689.06423,533.704319 1737.03765,533.704319 C1782.01274,533.704319 1804.00055,565.6866 1807.99834,619.6567 L1653.08416,623.654485 Z" id="The" fill="#FFFFFF" sketch:type="MSShapeGroup"></path>
                <path d="M3133.26412,920.490033 L3282.18162,915.492802 L3481.07143,422.765781 C3425.10244,426.763566 3366.13511,426.763566 3297.17331,426.763566 C3286.1794,461.744186 3261.19324,534.703765 3248.20044,579.678848 L3212.22038,698.612957 L3115.27409,420.766888 C3093.28627,422.765781 2948.36656,430.761351 2923.3804,430.761351 C2946.36766,474.736988 2984.34662,565.6866 3009.33278,624.653931 L3065.30177,754.581949 C3091.28738,814.548726 3115.27409,873.516058 3133.26412,920.490033 L3133.26412,920.490033 Z M4002.78239,652.638427 C4002.78239,518.712625 3931.82171,410.772425 3773.90919,410.772425 C3614.99723,410.772425 3502.0598,519.712071 3502.0598,678.624031 C3502.0598,818.546512 3594.00886,930.484496 3776.90753,930.484496 C3855.86379,930.484496 3922.82669,909.496124 3983.79291,873.516058 L3986.79125,744.587486 C3935.81949,771.572536 3877.85161,795.559247 3798.89535,795.559247 C3725.93577,795.559247 3686.95736,761.578073 3682.95958,700.611849 L3965.80288,694.615172 L4002.78239,652.638427 Z M3683.95903,623.654485 C3687.95681,571.683278 3719.93909,533.704319 3767.91251,533.704319 C3812.8876,533.704319 3834.87542,565.6866 3838.8732,619.6567 L3683.95903,623.654485 Z M4441.53931,410.772425 C4352.58859,417.768549 4293.62126,466.741417 4265.63677,538.70155 L4257.6412,414.77021 C4227.65781,418.767996 4103.72647,434.759136 4069.74529,434.759136 C4073.74308,477.735327 4076.74142,531.705426 4076.74142,589.673311 L4076.74142,744.587486 C4076.74142,802.555371 4075.74197,871.517165 4070.74474,914.493355 L4270.634,914.493355 C4267.63566,888.507752 4266.63621,846.531008 4266.63621,811.550388 L4266.63621,688.618494 C4266.63621,595.669989 4345.59247,575.681063 4429.54596,584.67608 L4441.53931,410.772425 Z M4449.53488,914.493355 L4657.41971,914.493355 C4663.41639,900.501107 4692.40033,821.54485 4705.39313,788.563123 L4950.25748,788.563123 L5004.22757,922.488926 L5217.10963,914.493355 C5189.12514,852.527685 5151.14618,771.572536 5125.16058,709.606866 L4906.28184,201.888151 L4745.37099,211.882614 C4726.38151,267.851606 4703.39424,319.822813 4668.41362,402.776855 L4449.53488,914.493355 Z M4826.32614,447.751938 L4907.28128,664.631783 L4746.37043,664.631783 L4826.32614,447.751938 Z M5787.79347,914.493355 C5785.79457,888.507752 5783.79568,846.531008 5783.79568,811.550388 L5783.79568,583.676633 C5783.79568,475.736434 5737.82115,410.772425 5640.87486,410.772425 C5572.91251,410.772425 5499.95293,452.749169 5459.97508,523.709856 L5452.97896,415.769657 C5422.99557,418.767996 5300.06368,433.75969 5265.08306,433.75969 C5269.08084,476.73588 5271.07973,536.702658 5271.07973,594.670543 L5271.07973,744.587486 C5271.07973,802.555371 5269.08084,871.517165 5265.08306,914.493355 L5464.97231,914.493355 C5461.97398,888.507752 5460.97453,846.531008 5460.97453,811.550388 L5460.97453,638.646179 C5460.97453,596.669435 5494.9557,554.692691 5541.92968,554.692691 C5582.90698,554.692691 5593.90089,581.677741 5593.90089,639.645626 L5593.90089,744.587486 C5593.90089,802.555371 5592.90144,871.517165 5587.90421,914.493355 L5787.79347,914.493355 Z M5998.67663,926.486711 C6058.64341,926.486711 6118.61019,896.503322 6146.59468,847.530454 C6162.58583,906.497785 6206.56146,926.486711 6265.52879,926.486711 C6301.50886,926.486711 6327.49446,920.490033 6359.47674,908.496678 L6366.47287,802.555371 C6358.4773,804.554264 6349.48228,807.552602 6342.48616,807.552602 C6322.49723,807.552602 6312.50277,800.556478 6313.50221,772.571982 L6317.5,612.660576 C6319.49889,473.737542 6255.53433,410.772425 6104.61794,410.772425 C6023.66279,410.772425 5940.70875,436.758029 5886.73865,468.74031 L5907.72702,598.668328 C5945.70598,575.681063 6006.6722,554.692691 6063.64064,554.692691 C6119.60963,554.692691 6138.59911,577.679956 6137.59967,619.6567 L6136.60022,632.649502 C6122.60797,631.650055 6109.61517,630.650609 6099.62071,630.650609 C5933.71262,630.650609 5851.75803,696.614064 5851.75803,794.559801 C5851.75803,877.513843 5908.72647,926.486711 5998.67663,926.486711 L5998.67663,926.486711 Z M6074.63455,821.54485 C6043.65172,821.54485 6024.66224,799.557032 6024.66224,766.575305 C6024.66224,731.594684 6048.64895,704.609635 6108.61573,704.609635 C6118.61019,704.609635 6127.6052,704.609635 6135.60078,705.609081 L6133.60188,751.58361 C6132.60244,799.557032 6108.61573,821.54485 6074.63455,821.54485 L6074.63455,821.54485 Z M6625.32946,914.493355 C6622.33112,888.507752 6620.33223,847.530454 6621.33167,812.549834 L6621.33167,332.815615 C6621.33167,324.820044 6622.33112,209.883721 6625.32946,183.898117 C6595.34607,189.894795 6460.42082,203.887043 6424.44075,203.887043 C6429.43798,246.863234 6431.43688,305.830565 6431.43688,363.79845 L6431.43688,745.586932 C6431.43688,804.554264 6429.43798,871.517165 6424.44075,914.493355 L6625.32946,914.493355 Z M6753.25858,1133.37209 C6807.22868,1127.37542 6882.18715,1124.37708 6947.15116,1124.37708 C6964.14175,1074.40476 7011.11573,950.473422 7026.10742,912.494463 L7222.99834,422.765781 C7167.02935,426.763566 7108.06202,426.763566 7039.10022,426.763566 L6990.12735,578.679402 L6955.14673,696.614064 L6860.19934,420.766888 C6839.21096,422.765781 6693.29181,430.761351 6667.3062,430.761351 C6690.29347,474.736988 6729.27187,565.6866 6755.25748,624.653931 L6811.22647,754.581949 C6834.21373,809.551495 6844.20819,833.538206 6861.19878,877.513843 L6753.25858,1133.37209 Z M7704.73145,421.766334 C7642.76578,424.764673 7583.79845,426.763566 7483.85382,426.763566 C7376.91307,426.763566 7343.93134,424.764673 7262.97619,421.766334 C7262.97619,473.737542 7261.97674,525.708749 7258.97841,571.683278 C7305.95238,570.683832 7354.92525,569.684385 7468.86213,569.684385 L7239.98893,826.542082 L7250.98283,918.491141 C7313.94795,914.493355 7391.90476,913.493909 7483.85382,913.493909 C7563.80952,913.493909 7648.76246,914.493355 7701.73311,918.491141 C7701.73311,858.524363 7705.7309,817.547065 7709.72868,767.574751 C7671.74972,769.573643 7593.79291,770.57309 7485.85271,770.57309 L7714.72591,513.715393 L7704.73145,421.766334 Z M8265.42082,652.638427 C8265.42082,518.712625 8194.46013,410.772425 8036.54762,410.772425 C7877.63566,410.772425 7764.69823,519.712071 7764.69823,678.624031 C7764.69823,818.546512 7856.64729,930.484496 8039.54596,930.484496 C8118.50221,930.484496 8185.46512,909.496124 8246.43134,873.516058 L8249.42968,744.587486 C8198.45792,771.572536 8140.49003,795.559247 8061.53378,795.559247 C7988.5742,795.559247 7949.59579,761.578073 7945.59801,700.611849 L8228.44131,694.615172 L8265.42082,652.638427 Z M7946.59745,623.654485 C7950.59524,571.683278 7982.57752,533.704319 8030.55094,533.704319 C8075.52602,533.704319 8097.51384,565.6866 8101.51163,619.6567 L7946.59745,623.654485 Z M8549.26357,410.772425 C8411.33998,410.772425 8312.3948,529.706534 8312.3948,689.61794 C8312.3948,814.548726 8388.35271,932.483389 8524.27741,932.483389 C8587.24252,932.483389 8634.2165,899.501661 8659.20266,864.521041 L8666.19878,914.493355 L8849.09745,914.493355 C8844.10022,868.518826 8842.10133,806.553156 8842.10133,748.585271 L8842.10133,292.837763 C8842.10133,258.856589 8843.10078,209.883721 8846.09911,183.898117 C8816.11573,189.894795 8683.18937,201.888151 8647.2093,204.886489 C8651.20709,247.86268 8651.20709,303.831672 8651.20709,361.799557 L8651.20709,439.756368 C8624.22204,421.766334 8594.23865,410.772425 8549.26357,410.772425 L8549.26357,410.772425 Z M8588.24197,540.700443 C8617.22591,540.700443 8634.2165,548.696013 8651.20709,561.688815 L8651.20709,768.574197 C8640.21318,787.563677 8618.22536,802.555371 8589.24142,802.555371 C8537.27021,802.555371 8500.2907,759.579181 8500.2907,672.627353 C8500.2907,600.66722 8531.27353,540.700443 8588.24197,540.700443 L8588.24197,540.700443 Z" id="verAnalyzed" fill="#FFFFFF" sketch:type="MSShapeGroup"></path>
            </g>
        </g>
    </g>
</svg>