<?xml version="1.0" encoding="UTF-8" standalone="no"?>
<svg width="500px" height="488px" viewBox="0 0 500 488" version="1.1" xmlns="http://www.w3.org/2000/svg" xmlns:xlink="http://www.w3.org/1999/xlink" xmlns:sketch="http://www.bohemiancoding.com/sketch/ns">
    <!-- Generator: Sketch 3.5.1 (25234) - http://www.bohemiancoding.com/sketch -->
    <title>Safari Pinned Tabs</title>
    <desc>Created with Sketch.</desc>
    <defs></defs>
    <g id="Page-1" stroke="none" stroke-width="1" fill="none" fill-rule="evenodd" sketch:type="MSPage">
        <g id="Safari-Pinned-Tabs" sketch:type="MSArtboardGroup" transform="translate(-250.000000, -256.000000)" fill="#000000">
            <path d="M579.315016,743.158475 C678.508695,709.999267 750.001908,616.349178 750.001908,506.000954 C750.001908,367.92924 638.072668,256 500.000954,256 C361.92924,256 250,367.92924 250,506.000954 C250,589.03614 290.481672,662.616324 352.785833,708.082325 M579.315016,743.158477 L579.315016,743.158475 M352.785833,708.082325 L376.410585,674.363245 L384.803293,660.629738 L393.70465,646.387553 C393.70465,646.387553 399.150049,636.869547 401.780384,632.79232 C404.732103,628.216923 409.711449,618.448189 409.711449,618.448189 C409.711449,618.448189 412.577259,611.918569 413.548118,608.344789 C414.56497,604.601703 415.557373,595.73055 415.557373,595.73055 L416.711278,579.370973 L416.999158,562.547435 L417.734663,545.447786 C417.734663,545.447786 417.67873,541.891204 417.905636,540.088662 C418.098343,538.557784 418.176947,535.49032 418.176947,535.49032 C418.176947,535.49032 418.055129,532.312555 417.924051,530.664777 C417.806307,529.184622 417.671155,525.839235 417.671155,525.839235 L415.52307,512.963471 L411.99474,499.410593 L406.674265,475.689533 L402.049693,452.385891 L399.161529,438.879753 L395.181951,426.117863 L389.952131,413.768863 C389.952131,413.768863 388.994243,411.81729 388.515299,410.841503 C388.099412,409.994187 387.267637,408.299555 387.267637,408.299555 C386.792102,406.633306 386.709112,406.185422 386.73743,405.911138 C387.325963,404.156628 388.041073,403.349992 388.363837,402.99904 C389.435152,402.459327 389.87861,402.42422 390.300676,402.423047 C390.823465,402.421593 392.561556,403.457508 393.202386,403.949283 C393.862311,404.455711 395.739247,406.305258 395.739247,406.305258 L399.548287,410.263289 L404.131954,415.715263 L409.46944,421.501267 L415.148442,427.7226 L422.361297,435.271964 L426.342655,440.43068 L429.529334,444.766464 C430.67802,445.841351 431.199558,446.329383 431.199558,446.329383 C431.199558,446.329383 432.108087,447.04806 432.617323,447.271153 C433.104225,447.484461 434.187972,447.638585 434.187972,447.638585 C435.643032,447.521582 436.270427,447.355619 436.729816,446.740525 C437.143879,446.18612 437.404683,445.17393 437.404683,445.17393 L437.068019,435.859334 C437.068019,435.859334 436.825388,431.229653 436.705345,428.939095 C436.616538,427.244561 436.167744,422.674969 436.030881,422.060424 C435.741846,420.76259 435.163775,418.166922 435.163775,418.166922 L432.535538,409.947812 C432.535538,409.947812 431.902477,407.312191 431.585946,405.99438 C431.290485,404.764286 430.699562,402.304099 430.699562,402.304099 C430.699562,402.304099 430.370522,400.770475 430.327374,399.947146 C430.287572,399.18769 430.450711,397.555745 430.450711,397.555745 C430.715585,396.884283 430.808139,396.304928 431.055861,395.879762 C431.679395,394.809589 432.350695,394.491987 432.350695,394.491987 C432.875387,394.185136 433.445646,394.067863 433.968218,394.046118 C434.966563,394.004576 436.43116,395.114982 436.43116,395.114982 C436.43116,395.114982 437.613768,396.092165 438.205072,396.580756 C438.650644,396.94893 441.165359,399.635038 441.977145,400.609919 C443.070858,401.923369 445.258284,404.550268 445.258284,404.550268 L451.753435,413.6149 C451.753435,413.6149 453.222191,416.103847 453.956569,417.348321 C454.494029,418.259099 456.532182,422.473534 457.434616,424.766382 C458.185283,426.673629 458.893881,428.511661 458.971015,428.845645 C459.220122,429.924265 460.343324,433.297546 460.655818,433.905567 C461.037436,434.648085 461.800672,436.133121 461.800672,436.133121 C463.389554,437.078517 464.101846,436.767136 464.148346,436.744444 C465.569697,435.900247 466.44231,435.324218 467.291677,434.756748 C468.804399,433.746084 470.763932,432.735289 470.763932,432.735289 C470.763932,432.735289 473.574584,431.395165 475.240184,430.711462 C476.885111,430.036246 480.174967,428.685812 480.174967,428.685812 L491.354507,425.42897 L501.635609,423.449196 L509.399063,421.981283 C509.399063,421.981283 511.996615,421.603082 512.728496,421.564726 C513.840896,421.526999 514.543726,421.527943 515.271741,421.81905 C516.105482,422.152433 517.306337,423.090674 517.306337,423.090674 L519.200932,425.262621 C520.518533,426.597665 521.446207,427.093656 521.446207,427.093656 C521.446207,427.093656 523.092983,427.686318 523.915625,427.862547 C524.777535,428.047189 526.499865,428.176269 526.499865,428.176269 C526.499865,428.176269 528.625971,428.237026 529.768246,428.177162 C530.757399,428.125323 532.894149,427.841159 532.894149,427.841159 C532.894149,427.841159 535.560834,427.557466 536.894176,427.415619 C538.334613,427.262379 541.212841,426.651216 541.212841,426.651216 C541.212841,426.651216 543.726616,426.22689 544.98218,425.862384 C546.24473,425.495851 548.769832,424.762784 548.769832,424.762784 L562.575833,418.834018 L570.23151,415.54673 L577.509957,412.694636 L582.055399,412.006673 L588.45579,411.031538 L594.31625,409.826094 L601.511888,407.53934 C601.511888,407.53934 602.910161,407.002009 603.609298,406.733343 C604.008916,406.579777 604.597377,406.353642 605.106961,406.157818 C605.675721,405.939254 606.442112,405.691533 606.816961,405.631282 C608.605862,405.566242 609.445762,405.668084 609.801311,405.76599 C611.455502,406.455066 611.531979,406.494651 611.660725,406.559582 C612.962908,407.639059 613.310602,408.119125 613.440988,408.339854 C613.801677,408.950459 614.302109,410.322021 614.302109,410.322021 L615.384384,414.577542 L615.611801,418.916921 L615.190911,424.593949 L614.6347,427.587283 C614.6347,427.587283 614.226868,429.126575 614.022953,429.89622 C613.864727,430.493417 613.67315,430.98446 613.440979,431.737705 C613.206592,432.498145 613.044583,433.512095 613.044583,433.512095 C613.204968,435.70045 613.227569,435.973462 613.283472,436.95331 C613.378757,438.623432 613.461561,440.346738 613.422159,440.716716 C613.343659,441.453804 612.96071,443.957668 612.686368,445.057025 C612.485832,445.860625 608.760895,455.649562 608.760895,455.649562 C608.760895,455.649562 604.787135,463.552276 603.682291,465.420409 C602.699888,467.081513 597.927206,473.70124 597.927206,473.70124 L590.951085,480.979556 L584.313087,486.533255 L574.792744,494.405079 L567.646011,501.068973 L561.108716,507.155314 L558.902944,509.522014 L557.007002,511.915442 L555.245848,514.299802 L553.613562,517.186755 L552.021186,520.326289 L550.139324,525.518383 C550.139324,525.518383 549.830587,527.866174 549.676219,529.040069 C549.527087,530.174141 549.562653,534.38145 549.729567,535.351033 C549.942553,536.588234 550.368524,539.062636 550.368524,539.062636 C550.368524,539.062636 551.209626,541.490202 551.630177,542.703985 C552.098525,544.05572 553.035222,546.759189 553.035222,546.759189 L555.560149,554.329912 L558.765866,563.776656 L561.223604,571.797403 L562.272338,576.964266 L566.626492,603.327323 L568.391507,616.336794 L569.568198,626.674235 L570.578973,638.54091 L579.315016,743.158477 L579.315016,743.158475" sketch:type="MSShapeGroup"></path>
        </g>
    </g>
</svg>